G04 Layer: TopSolderMaskLayer*
G04 EasyEDA v6.4.25, 2021-10-17T11:29:02+03:00*
G04 a1471bc6611e4e73a61749ba241ce28d,91e0e8a571584a8f85f685312bed6ac2,10*
G04 Gerber Generator version 0.2*
G04 Scale: 100 percent, Rotated: No, Reflected: No *
G04 Dimensions in millimeters *
G04 leading zeros omitted , absolute positions ,4 integer and 5 decimal *
%FSLAX45Y45*%
%MOMM*%

%ADD29C,0.7316*%
%ADD32C,1.9016*%
%ADD34C,1.7112*%
%ADD38C,1.9812*%

%LPD*%
D29*
X1755899Y-1828800D02*
G01*
X1879399Y-1828800D01*
X1755899Y-1701800D02*
G01*
X1879399Y-1701800D01*
X1755899Y-1574800D02*
G01*
X1879399Y-1574800D01*
X1755899Y-1447800D02*
G01*
X1879399Y-1447800D01*
X1219400Y-1828800D02*
G01*
X1342900Y-1828800D01*
X1219400Y-1701800D02*
G01*
X1342900Y-1701800D01*
X1219400Y-1574800D02*
G01*
X1342900Y-1574800D01*
X1219400Y-1447800D02*
G01*
X1342900Y-1447800D01*
G36*
X2489961Y-3683507D02*
G01*
X2489961Y-3593337D01*
X2590038Y-3593337D01*
X2590038Y-3683507D01*
G37*
G36*
X2489961Y-3823462D02*
G01*
X2489961Y-3733292D01*
X2590038Y-3733292D01*
X2590038Y-3823462D01*
G37*
G36*
X2235961Y-3683507D02*
G01*
X2235961Y-3593337D01*
X2336038Y-3593337D01*
X2336038Y-3683507D01*
G37*
G36*
X2235961Y-3823462D02*
G01*
X2235961Y-3733292D01*
X2336038Y-3733292D01*
X2336038Y-3823462D01*
G37*
G36*
X802386Y-3770884D02*
G01*
X802386Y-3645915D01*
X907542Y-3645915D01*
X907542Y-3770884D01*
G37*
G36*
X464057Y-3770884D02*
G01*
X464057Y-3645915D01*
X569213Y-3645915D01*
X569213Y-3770884D01*
G37*
D32*
G01*
X2362200Y-596900D03*
G01*
X2108200Y-596900D03*
G01*
X1854200Y-596900D03*
G01*
X1600200Y-596900D03*
G01*
X1346200Y-596900D03*
G01*
X1092200Y-596900D03*
G01*
X838200Y-596900D03*
G36*
X489204Y-691895D02*
G01*
X489204Y-501904D01*
X679195Y-501904D01*
X679195Y-691895D01*
G37*
G01*
X1143000Y-3695700D03*
G01*
X1397000Y-3695700D03*
G01*
X1651000Y-3695700D03*
G36*
X1810004Y-3790695D02*
G01*
X1810004Y-3600704D01*
X1999995Y-3600704D01*
X1999995Y-3790695D01*
G37*
D34*
G01*
X337997Y-2875000D03*
G01*
X337997Y-2621000D03*
G01*
X337997Y-2367000D03*
G01*
X337997Y-2113000D03*
G01*
X337997Y-1859000D03*
G01*
X337997Y-1605000D03*
G01*
X337997Y-1351000D03*
G01*
X2623997Y-2875000D03*
G01*
X2623997Y-2621000D03*
G01*
X2623997Y-2367000D03*
G01*
X2623997Y-2113000D03*
G01*
X2623997Y-1859000D03*
G01*
X2623997Y-1605000D03*
G01*
X2623997Y-1351000D03*
G01*
X337997Y-3129000D03*
G01*
X2623997Y-3129000D03*
G36*
X1389126Y-2821431D02*
G01*
X1389126Y-2211323D01*
X2049272Y-2211323D01*
X2049272Y-2821431D01*
G37*
G36*
X879094Y-2358136D02*
G01*
X879094Y-2213102D01*
X1169162Y-2213102D01*
X1169162Y-2358136D01*
G37*
G36*
X879094Y-2823718D02*
G01*
X879094Y-2663444D01*
X1169162Y-2663444D01*
X1169162Y-2823718D01*
G37*
D38*
G01*
X1143000Y-3048000D03*
G01*
X1905000Y-3048000D03*
M02*
