M48
METRIC,LZ,000.000
;FILE_FORMAT=3:3
;TYPE=PLATED
;Layer: Drill PTH
;EasyEDA v6.4.25, 2021-10-17T11:29:02+03:00
;a1471bc6611e4e73a61749ba241ce28d,91e0e8a571584a8f85f685312bed6ac2,10
;Gerber Generator version 0.2
;Holesize 1 = 0.306 mm
T01C0.306
;Holesize 2 = 0.900 mm
T02C0.900
;Holesize 3 = 1.000 mm
T03C1.000
;Holesize 4 = 1.101 mm
T04C1.101
%
G05
G90
T01
X014225Y-015878
T02
X011430Y-030480
X019050Y-030480
T03
X003380Y-028750G85X003380Y-028750
X003380Y-026210G85X003380Y-026210
X003380Y-023670G85X003380Y-023670
X003380Y-021130G85X003380Y-021130
X003380Y-018590G85X003380Y-018590
X003380Y-016050G85X003380Y-016050
X003380Y-013510G85X003380Y-013510
X026240Y-028750G85X026240Y-028750
X026240Y-026210G85X026240Y-026210
X026240Y-023670G85X026240Y-023670
X026240Y-021130G85X026240Y-021130
X026240Y-018590G85X026240Y-018590
X026240Y-016050G85X026240Y-016050
X026240Y-013510G85X026240Y-013510
X003380Y-031290G85X003380Y-031290
X026240Y-031290G85X026240Y-031290
T04
X023622Y-005969
X021082Y-005969
X018542Y-005969
X016002Y-005969
X013462Y-005969
X010922Y-005969
X008382Y-005969
X005842Y-005969
X011430Y-036957
X013970Y-036957
X016510Y-036957
X019050Y-036957
M30
