G04 Layer: TopSilkLayer*
G04 EasyEDA v6.4.25, 2021-10-17T11:29:02+03:00*
G04 a1471bc6611e4e73a61749ba241ce28d,91e0e8a571584a8f85f685312bed6ac2,10*
G04 Gerber Generator version 0.2*
G04 Scale: 100 percent, Rotated: No, Reflected: No *
G04 Dimensions in millimeters *
G04 leading zeros omitted , absolute positions ,4 integer and 5 decimal *
%FSLAX45Y45*%
%MOMM*%

%ADD10C,0.2540*%
%ADD22C,0.1524*%
%ADD23C,0.1270*%
%ADD24C,0.1520*%
%ADD25C,0.3000*%
%ADD26C,0.4000*%
%ADD27C,0.1500*%
%ADD28C,0.1016*%

%LPD*%
D27*
X1141221Y-3251962D02*
G01*
X1104900Y-3347465D01*
X1141221Y-3251962D02*
G01*
X1177544Y-3347465D01*
X1118615Y-3315462D02*
G01*
X1164081Y-3315462D01*
X1358900Y-3251962D02*
G01*
X1358900Y-3347465D01*
X1358900Y-3251962D02*
G01*
X1399794Y-3251962D01*
X1413510Y-3256534D01*
X1418081Y-3261105D01*
X1422654Y-3269995D01*
X1422654Y-3279139D01*
X1418081Y-3288284D01*
X1413510Y-3292855D01*
X1399794Y-3297428D01*
X1358900Y-3297428D02*
G01*
X1399794Y-3297428D01*
X1413510Y-3302000D01*
X1418081Y-3306318D01*
X1422654Y-3315462D01*
X1422654Y-3329178D01*
X1418081Y-3338321D01*
X1413510Y-3342894D01*
X1399794Y-3347465D01*
X1358900Y-3347465D01*
X1653794Y-3252723D02*
G01*
X1653794Y-3334765D01*
X1612900Y-3293618D02*
G01*
X1694687Y-3293618D01*
X1854200Y-3293618D02*
G01*
X1935988Y-3293618D01*
X487171Y-975868D02*
G01*
X482854Y-966723D01*
X473710Y-957834D01*
X464565Y-953262D01*
X446278Y-953262D01*
X437387Y-957834D01*
X428244Y-966723D01*
X423671Y-975868D01*
X419100Y-989584D01*
X419100Y-1012189D01*
X423671Y-1025905D01*
X428244Y-1035050D01*
X437387Y-1044194D01*
X446278Y-1048765D01*
X464565Y-1048765D01*
X473710Y-1044194D01*
X482854Y-1035050D01*
X487171Y-1025905D01*
X487171Y-1012189D01*
X464565Y-1012189D02*
G01*
X487171Y-1012189D01*
X517397Y-953262D02*
G01*
X517397Y-1048765D01*
X517397Y-953262D02*
G01*
X580897Y-1048765D01*
X580897Y-953262D02*
G01*
X580897Y-1048765D01*
X610870Y-953262D02*
G01*
X610870Y-1048765D01*
X610870Y-953262D02*
G01*
X642620Y-953262D01*
X656336Y-957834D01*
X665479Y-966723D01*
X670052Y-975868D01*
X674623Y-989584D01*
X674623Y-1012189D01*
X670052Y-1025905D01*
X665479Y-1035050D01*
X656336Y-1044194D01*
X642620Y-1048765D01*
X610870Y-1048765D01*
X771144Y-953262D02*
G01*
X821181Y-953262D01*
X793750Y-989584D01*
X807465Y-989584D01*
X816610Y-994155D01*
X821181Y-998728D01*
X825754Y-1012189D01*
X825754Y-1021334D01*
X821181Y-1035050D01*
X812037Y-1044194D01*
X798321Y-1048765D01*
X784605Y-1048765D01*
X771144Y-1044194D01*
X766571Y-1039621D01*
X762000Y-1030478D01*
X855726Y-953262D02*
G01*
X892047Y-1048765D01*
X928370Y-953262D02*
G01*
X892047Y-1048765D01*
X1039621Y-953262D02*
G01*
X1003300Y-1048765D01*
X1039621Y-953262D02*
G01*
X1075944Y-1048765D01*
X1017015Y-1016762D02*
G01*
X1062481Y-1016762D01*
X1133347Y-953262D02*
G01*
X1119631Y-957834D01*
X1110487Y-971295D01*
X1105915Y-994155D01*
X1105915Y-1007618D01*
X1110487Y-1030478D01*
X1119631Y-1044194D01*
X1133347Y-1048765D01*
X1142492Y-1048765D01*
X1155954Y-1044194D01*
X1165097Y-1030478D01*
X1169670Y-1007618D01*
X1169670Y-994155D01*
X1165097Y-971295D01*
X1155954Y-957834D01*
X1142492Y-953262D01*
X1133347Y-953262D01*
X1270000Y-953262D02*
G01*
X1270000Y-1048765D01*
X1270000Y-953262D02*
G01*
X1301750Y-953262D01*
X1315465Y-957834D01*
X1324610Y-966723D01*
X1329181Y-975868D01*
X1333754Y-989584D01*
X1333754Y-1012189D01*
X1329181Y-1025905D01*
X1324610Y-1035050D01*
X1315465Y-1044194D01*
X1301750Y-1048765D01*
X1270000Y-1048765D01*
X1363726Y-971295D02*
G01*
X1372615Y-966723D01*
X1386331Y-953262D01*
X1386331Y-1048765D01*
X1524000Y-953262D02*
G01*
X1524000Y-1048765D01*
X1524000Y-953262D02*
G01*
X1555750Y-953262D01*
X1569465Y-957834D01*
X1578610Y-966723D01*
X1583181Y-975868D01*
X1587754Y-989584D01*
X1587754Y-1012189D01*
X1583181Y-1025905D01*
X1578610Y-1035050D01*
X1569465Y-1044194D01*
X1555750Y-1048765D01*
X1524000Y-1048765D01*
X1622297Y-975868D02*
G01*
X1622297Y-971295D01*
X1626615Y-962405D01*
X1631187Y-957834D01*
X1640331Y-953262D01*
X1658620Y-953262D01*
X1667510Y-957834D01*
X1672081Y-962405D01*
X1676654Y-971295D01*
X1676654Y-980439D01*
X1672081Y-989584D01*
X1663192Y-1003300D01*
X1617726Y-1048765D01*
X1681226Y-1048765D01*
X1790700Y-953262D02*
G01*
X1790700Y-1048765D01*
X1790700Y-953262D02*
G01*
X1822450Y-953262D01*
X1836165Y-957834D01*
X1845310Y-966723D01*
X1849881Y-975868D01*
X1854454Y-989584D01*
X1854454Y-1012189D01*
X1849881Y-1025905D01*
X1845310Y-1035050D01*
X1836165Y-1044194D01*
X1822450Y-1048765D01*
X1790700Y-1048765D01*
X1938781Y-953262D02*
G01*
X1893315Y-953262D01*
X1888997Y-994155D01*
X1893315Y-989584D01*
X1907031Y-985012D01*
X1920747Y-985012D01*
X1934209Y-989584D01*
X1943354Y-998728D01*
X1947925Y-1012189D01*
X1947925Y-1021334D01*
X1943354Y-1035050D01*
X1934209Y-1044194D01*
X1920747Y-1048765D01*
X1907031Y-1048765D01*
X1893315Y-1044194D01*
X1888997Y-1039621D01*
X1884426Y-1030478D01*
X2044700Y-953262D02*
G01*
X2044700Y-1048765D01*
X2044700Y-953262D02*
G01*
X2076450Y-953262D01*
X2090165Y-957834D01*
X2099309Y-966723D01*
X2103881Y-975868D01*
X2108454Y-989584D01*
X2108454Y-1012189D01*
X2103881Y-1025905D01*
X2099309Y-1035050D01*
X2090165Y-1044194D01*
X2076450Y-1048765D01*
X2044700Y-1048765D01*
X2192781Y-966723D02*
G01*
X2188209Y-957834D01*
X2174747Y-953262D01*
X2165604Y-953262D01*
X2151888Y-957834D01*
X2142997Y-971295D01*
X2138425Y-994155D01*
X2138425Y-1016762D01*
X2142997Y-1035050D01*
X2151888Y-1044194D01*
X2165604Y-1048765D01*
X2170175Y-1048765D01*
X2183891Y-1044194D01*
X2192781Y-1035050D01*
X2197354Y-1021334D01*
X2197354Y-1016762D01*
X2192781Y-1003300D01*
X2183891Y-994155D01*
X2170175Y-989584D01*
X2165604Y-989584D01*
X2151888Y-994155D01*
X2142997Y-1003300D01*
X2138425Y-1016762D01*
X2298700Y-953262D02*
G01*
X2298700Y-1048765D01*
X2298700Y-953262D02*
G01*
X2330450Y-953262D01*
X2344165Y-957834D01*
X2353309Y-966723D01*
X2357881Y-975868D01*
X2362454Y-989584D01*
X2362454Y-1012189D01*
X2357881Y-1025905D01*
X2353309Y-1035050D01*
X2344165Y-1044194D01*
X2330450Y-1048765D01*
X2298700Y-1048765D01*
X2455925Y-953262D02*
G01*
X2410459Y-1048765D01*
X2392425Y-953262D02*
G01*
X2455925Y-953262D01*
D22*
X2529077Y-3415792D02*
G01*
X2523743Y-3405378D01*
X2513329Y-3394963D01*
X2503170Y-3389884D01*
X2482341Y-3389884D01*
X2471927Y-3394963D01*
X2461513Y-3405378D01*
X2456179Y-3415792D01*
X2451100Y-3431539D01*
X2451100Y-3457447D01*
X2456179Y-3472942D01*
X2461513Y-3483355D01*
X2471927Y-3493770D01*
X2482341Y-3498850D01*
X2503170Y-3498850D01*
X2513329Y-3493770D01*
X2523743Y-3483355D01*
X2529077Y-3472942D01*
X2563368Y-3410712D02*
G01*
X2573781Y-3405378D01*
X2589275Y-3389884D01*
X2589275Y-3498850D01*
X2262377Y-3415792D02*
G01*
X2257043Y-3405378D01*
X2246629Y-3394963D01*
X2236470Y-3389884D01*
X2215641Y-3389884D01*
X2205227Y-3394963D01*
X2194813Y-3405378D01*
X2189479Y-3415792D01*
X2184400Y-3431539D01*
X2184400Y-3457447D01*
X2189479Y-3472942D01*
X2194813Y-3483355D01*
X2205227Y-3493770D01*
X2215641Y-3498850D01*
X2236470Y-3498850D01*
X2246629Y-3493770D01*
X2257043Y-3483355D01*
X2262377Y-3472942D01*
X2301747Y-3415792D02*
G01*
X2301747Y-3410712D01*
X2307081Y-3400297D01*
X2312161Y-3394963D01*
X2322575Y-3389884D01*
X2343404Y-3389884D01*
X2353818Y-3394963D01*
X2358897Y-3400297D01*
X2364231Y-3410712D01*
X2364231Y-3421126D01*
X2358897Y-3431539D01*
X2348484Y-3447034D01*
X2296668Y-3498850D01*
X2369311Y-3498850D01*
X622300Y-3466084D02*
G01*
X622300Y-3575050D01*
X622300Y-3466084D02*
G01*
X658621Y-3466084D01*
X674370Y-3471163D01*
X684529Y-3481578D01*
X689863Y-3491992D01*
X694944Y-3507739D01*
X694944Y-3533647D01*
X689863Y-3549142D01*
X684529Y-3559555D01*
X674370Y-3569970D01*
X658621Y-3575050D01*
X622300Y-3575050D01*
X729234Y-3486912D02*
G01*
X739647Y-3481578D01*
X755395Y-3466084D01*
X755395Y-3575050D01*
X1257300Y-3415284D02*
G01*
X1257300Y-3524250D01*
X1257300Y-3415284D02*
G01*
X1304036Y-3415284D01*
X1319529Y-3420363D01*
X1324863Y-3425697D01*
X1329944Y-3436112D01*
X1329944Y-3446526D01*
X1324863Y-3456939D01*
X1319529Y-3462020D01*
X1304036Y-3467100D01*
X1257300Y-3467100D01*
X1293621Y-3467100D02*
G01*
X1329944Y-3524250D01*
X1437131Y-3430778D02*
G01*
X1426718Y-3420363D01*
X1410970Y-3415284D01*
X1390395Y-3415284D01*
X1374647Y-3420363D01*
X1364234Y-3430778D01*
X1364234Y-3441192D01*
X1369568Y-3451605D01*
X1374647Y-3456939D01*
X1385062Y-3462020D01*
X1416304Y-3472434D01*
X1426718Y-3477513D01*
X1431797Y-3482847D01*
X1437131Y-3493262D01*
X1437131Y-3508755D01*
X1426718Y-3519170D01*
X1410970Y-3524250D01*
X1390395Y-3524250D01*
X1374647Y-3519170D01*
X1364234Y-3508755D01*
X1523237Y-3415284D02*
G01*
X1471421Y-3487928D01*
X1549400Y-3487928D01*
X1523237Y-3415284D02*
G01*
X1523237Y-3524250D01*
X1609597Y-3415284D02*
G01*
X1593850Y-3420363D01*
X1588770Y-3430778D01*
X1588770Y-3441192D01*
X1593850Y-3451605D01*
X1604263Y-3456939D01*
X1625092Y-3462020D01*
X1640839Y-3467100D01*
X1651000Y-3477513D01*
X1656334Y-3487928D01*
X1656334Y-3503676D01*
X1651000Y-3514089D01*
X1645920Y-3519170D01*
X1630426Y-3524250D01*
X1609597Y-3524250D01*
X1593850Y-3519170D01*
X1588770Y-3514089D01*
X1583689Y-3503676D01*
X1583689Y-3487928D01*
X1588770Y-3477513D01*
X1599184Y-3467100D01*
X1614678Y-3462020D01*
X1635505Y-3456939D01*
X1645920Y-3451605D01*
X1651000Y-3441192D01*
X1651000Y-3430778D01*
X1645920Y-3420363D01*
X1630426Y-3415284D01*
X1609597Y-3415284D01*
X1752854Y-3415284D02*
G01*
X1701037Y-3415284D01*
X1695704Y-3462020D01*
X1701037Y-3456939D01*
X1716531Y-3451605D01*
X1732279Y-3451605D01*
X1747773Y-3456939D01*
X1758187Y-3467100D01*
X1763268Y-3482847D01*
X1763268Y-3493262D01*
X1758187Y-3508755D01*
X1747773Y-3519170D01*
X1732279Y-3524250D01*
X1716531Y-3524250D01*
X1701037Y-3519170D01*
X1695704Y-3514089D01*
X1690623Y-3503676D01*
D28*
X528573Y-2492755D02*
G01*
X528573Y-2614168D01*
X528573Y-2492755D02*
G01*
X568960Y-2492755D01*
X586231Y-2498597D01*
X597662Y-2510281D01*
X603504Y-2521712D01*
X609345Y-2538984D01*
X609345Y-2567939D01*
X603504Y-2585212D01*
X597662Y-2596642D01*
X586231Y-2608326D01*
X568960Y-2614168D01*
X528573Y-2614168D01*
X728218Y-2492755D02*
G01*
X670560Y-2614168D01*
X647445Y-2492755D02*
G01*
X728218Y-2492755D01*
X528573Y-2238755D02*
G01*
X528573Y-2360168D01*
X528573Y-2238755D02*
G01*
X568960Y-2238755D01*
X586231Y-2244597D01*
X597662Y-2256281D01*
X603504Y-2267712D01*
X609345Y-2284984D01*
X609345Y-2313939D01*
X603504Y-2331212D01*
X597662Y-2342642D01*
X586231Y-2354326D01*
X568960Y-2360168D01*
X528573Y-2360168D01*
X716787Y-2256281D02*
G01*
X710945Y-2244597D01*
X693673Y-2238755D01*
X681989Y-2238755D01*
X664718Y-2244597D01*
X653287Y-2261870D01*
X647445Y-2290826D01*
X647445Y-2319781D01*
X653287Y-2342642D01*
X664718Y-2354326D01*
X681989Y-2360168D01*
X687831Y-2360168D01*
X705104Y-2354326D01*
X716787Y-2342642D01*
X722376Y-2325370D01*
X722376Y-2319781D01*
X716787Y-2302255D01*
X705104Y-2290826D01*
X687831Y-2284984D01*
X681989Y-2284984D01*
X664718Y-2290826D01*
X653287Y-2302255D01*
X647445Y-2319781D01*
X528573Y-1984755D02*
G01*
X528573Y-2106168D01*
X528573Y-1984755D02*
G01*
X568960Y-1984755D01*
X586231Y-1990597D01*
X597662Y-2002281D01*
X603504Y-2013712D01*
X609345Y-2030984D01*
X609345Y-2059939D01*
X603504Y-2077212D01*
X597662Y-2088642D01*
X586231Y-2100326D01*
X568960Y-2106168D01*
X528573Y-2106168D01*
X716787Y-1984755D02*
G01*
X658876Y-1984755D01*
X653287Y-2036826D01*
X658876Y-2030984D01*
X676402Y-2025142D01*
X693673Y-2025142D01*
X710945Y-2030984D01*
X722376Y-2042668D01*
X728218Y-2059939D01*
X728218Y-2071370D01*
X722376Y-2088642D01*
X710945Y-2100326D01*
X693673Y-2106168D01*
X676402Y-2106168D01*
X658876Y-2100326D01*
X653287Y-2094484D01*
X647445Y-2083054D01*
X528573Y-2746755D02*
G01*
X528573Y-2868168D01*
X528573Y-2746755D02*
G01*
X568960Y-2746755D01*
X586231Y-2752597D01*
X597662Y-2764281D01*
X603504Y-2775712D01*
X609345Y-2792984D01*
X609345Y-2821939D01*
X603504Y-2839212D01*
X597662Y-2850642D01*
X586231Y-2862326D01*
X568960Y-2868168D01*
X528573Y-2868168D01*
X676402Y-2746755D02*
G01*
X658876Y-2752597D01*
X653287Y-2764281D01*
X653287Y-2775712D01*
X658876Y-2787142D01*
X670560Y-2792984D01*
X693673Y-2798826D01*
X710945Y-2804668D01*
X722376Y-2816097D01*
X728218Y-2827781D01*
X728218Y-2845054D01*
X722376Y-2856484D01*
X716787Y-2862326D01*
X699262Y-2868168D01*
X676402Y-2868168D01*
X658876Y-2862326D01*
X653287Y-2856484D01*
X647445Y-2845054D01*
X647445Y-2827781D01*
X653287Y-2816097D01*
X664718Y-2804668D01*
X681989Y-2798826D01*
X705104Y-2792984D01*
X716787Y-2787142D01*
X722376Y-2775712D01*
X722376Y-2764281D01*
X716787Y-2752597D01*
X699262Y-2746755D01*
X676402Y-2746755D01*
X540004Y-3000755D02*
G01*
X603504Y-3000755D01*
X568960Y-3046984D01*
X586231Y-3046984D01*
X597662Y-3052826D01*
X603504Y-3058668D01*
X609345Y-3075939D01*
X609345Y-3087370D01*
X603504Y-3104642D01*
X592073Y-3116326D01*
X574802Y-3122168D01*
X557276Y-3122168D01*
X540004Y-3116326D01*
X534162Y-3110484D01*
X528573Y-3099054D01*
X647445Y-3000755D02*
G01*
X693673Y-3122168D01*
X739902Y-3000755D02*
G01*
X693673Y-3122168D01*
X789431Y-3000755D02*
G01*
X852931Y-3000755D01*
X818387Y-3046984D01*
X835660Y-3046984D01*
X847089Y-3052826D01*
X852931Y-3058668D01*
X858773Y-3075939D01*
X858773Y-3087370D01*
X852931Y-3104642D01*
X841502Y-3116326D01*
X823976Y-3122168D01*
X806704Y-3122168D01*
X789431Y-3116326D01*
X783589Y-3110484D01*
X778002Y-3099054D01*
X528573Y-1730755D02*
G01*
X528573Y-1852168D01*
X528573Y-1730755D02*
G01*
X568960Y-1730755D01*
X586231Y-1736597D01*
X597662Y-1748281D01*
X603504Y-1759712D01*
X609345Y-1776984D01*
X609345Y-1805939D01*
X603504Y-1823212D01*
X597662Y-1834642D01*
X586231Y-1846326D01*
X568960Y-1852168D01*
X528573Y-1852168D01*
X681989Y-1730755D02*
G01*
X664718Y-1736597D01*
X653287Y-1753870D01*
X647445Y-1782826D01*
X647445Y-1800097D01*
X653287Y-1829054D01*
X664718Y-1846326D01*
X681989Y-1852168D01*
X693673Y-1852168D01*
X710945Y-1846326D01*
X722376Y-1829054D01*
X728218Y-1800097D01*
X728218Y-1782826D01*
X722376Y-1753870D01*
X710945Y-1736597D01*
X693673Y-1730755D01*
X681989Y-1730755D01*
X574802Y-1476755D02*
G01*
X528573Y-1598168D01*
X574802Y-1476755D02*
G01*
X620776Y-1598168D01*
X545845Y-1557781D02*
G01*
X603504Y-1557781D01*
X693673Y-1476755D02*
G01*
X676402Y-1482597D01*
X664718Y-1499870D01*
X658876Y-1528826D01*
X658876Y-1546097D01*
X664718Y-1575054D01*
X676402Y-1592326D01*
X693673Y-1598168D01*
X705104Y-1598168D01*
X722376Y-1592326D01*
X734060Y-1575054D01*
X739902Y-1546097D01*
X739902Y-1528826D01*
X734060Y-1499870D01*
X722376Y-1482597D01*
X705104Y-1476755D01*
X693673Y-1476755D01*
X528573Y-1222755D02*
G01*
X528573Y-1344168D01*
X528573Y-1222755D02*
G01*
X580389Y-1222755D01*
X597662Y-1228597D01*
X603504Y-1234439D01*
X609345Y-1245870D01*
X609345Y-1257554D01*
X603504Y-1268984D01*
X597662Y-1274826D01*
X580389Y-1280668D01*
X528573Y-1280668D01*
X568960Y-1280668D02*
G01*
X609345Y-1344168D01*
X728218Y-1240281D02*
G01*
X716787Y-1228597D01*
X699262Y-1222755D01*
X676402Y-1222755D01*
X658876Y-1228597D01*
X647445Y-1240281D01*
X647445Y-1251712D01*
X653287Y-1263142D01*
X658876Y-1268984D01*
X670560Y-1274826D01*
X705104Y-1286255D01*
X716787Y-1292097D01*
X722376Y-1297939D01*
X728218Y-1309370D01*
X728218Y-1326642D01*
X716787Y-1338326D01*
X699262Y-1344168D01*
X676402Y-1344168D01*
X658876Y-1338326D01*
X647445Y-1326642D01*
X806704Y-1222755D02*
G01*
X806704Y-1344168D01*
X766318Y-1222755D02*
G01*
X847089Y-1222755D01*
X2245359Y-1222755D02*
G01*
X2245359Y-1344168D01*
X2204974Y-1222755D02*
G01*
X2285745Y-1222755D01*
X2323845Y-1222755D02*
G01*
X2404618Y-1344168D01*
X2404618Y-1222755D02*
G01*
X2323845Y-1344168D01*
X2204974Y-1476755D02*
G01*
X2204974Y-1598168D01*
X2204974Y-1476755D02*
G01*
X2256790Y-1476755D01*
X2274061Y-1482597D01*
X2279904Y-1488439D01*
X2285745Y-1499870D01*
X2285745Y-1511554D01*
X2279904Y-1522984D01*
X2274061Y-1528826D01*
X2256790Y-1534668D01*
X2204974Y-1534668D01*
X2245359Y-1534668D02*
G01*
X2285745Y-1598168D01*
X2323845Y-1476755D02*
G01*
X2404618Y-1598168D01*
X2404618Y-1476755D02*
G01*
X2323845Y-1598168D01*
X2204974Y-1730755D02*
G01*
X2204974Y-1852168D01*
X2204974Y-1730755D02*
G01*
X2245359Y-1730755D01*
X2262631Y-1736597D01*
X2274061Y-1748281D01*
X2279904Y-1759712D01*
X2285745Y-1776984D01*
X2285745Y-1805939D01*
X2279904Y-1823212D01*
X2274061Y-1834642D01*
X2262631Y-1846326D01*
X2245359Y-1852168D01*
X2204974Y-1852168D01*
X2323845Y-1753870D02*
G01*
X2335275Y-1748281D01*
X2352802Y-1730755D01*
X2352802Y-1852168D01*
X2204974Y-1984755D02*
G01*
X2204974Y-2106168D01*
X2204974Y-1984755D02*
G01*
X2245359Y-1984755D01*
X2262631Y-1990597D01*
X2274061Y-2002281D01*
X2279904Y-2013712D01*
X2285745Y-2030984D01*
X2285745Y-2059939D01*
X2279904Y-2077212D01*
X2274061Y-2088642D01*
X2262631Y-2100326D01*
X2245359Y-2106168D01*
X2204974Y-2106168D01*
X2329688Y-2013712D02*
G01*
X2329688Y-2007870D01*
X2335275Y-1996439D01*
X2341118Y-1990597D01*
X2352802Y-1984755D01*
X2375661Y-1984755D01*
X2387345Y-1990597D01*
X2393188Y-1996439D01*
X2398775Y-2007870D01*
X2398775Y-2019554D01*
X2393188Y-2030984D01*
X2381504Y-2048255D01*
X2323845Y-2106168D01*
X2404618Y-2106168D01*
X2204974Y-2238755D02*
G01*
X2204974Y-2360168D01*
X2204974Y-2238755D02*
G01*
X2245359Y-2238755D01*
X2262631Y-2244597D01*
X2274061Y-2256281D01*
X2279904Y-2267712D01*
X2285745Y-2284984D01*
X2285745Y-2313939D01*
X2279904Y-2331212D01*
X2274061Y-2342642D01*
X2262631Y-2354326D01*
X2245359Y-2360168D01*
X2204974Y-2360168D01*
X2335275Y-2238755D02*
G01*
X2398775Y-2238755D01*
X2364231Y-2284984D01*
X2381504Y-2284984D01*
X2393188Y-2290826D01*
X2398775Y-2296668D01*
X2404618Y-2313939D01*
X2404618Y-2325370D01*
X2398775Y-2342642D01*
X2387345Y-2354326D01*
X2370074Y-2360168D01*
X2352802Y-2360168D01*
X2335275Y-2354326D01*
X2329688Y-2348484D01*
X2323845Y-2337054D01*
X2204974Y-2492755D02*
G01*
X2204974Y-2614168D01*
X2204974Y-2492755D02*
G01*
X2245359Y-2492755D01*
X2262631Y-2498597D01*
X2274061Y-2510281D01*
X2279904Y-2521712D01*
X2285745Y-2538984D01*
X2285745Y-2567939D01*
X2279904Y-2585212D01*
X2274061Y-2596642D01*
X2262631Y-2608326D01*
X2245359Y-2614168D01*
X2204974Y-2614168D01*
X2381504Y-2492755D02*
G01*
X2323845Y-2573781D01*
X2410459Y-2573781D01*
X2381504Y-2492755D02*
G01*
X2381504Y-2614168D01*
X2177288Y-2775712D02*
G01*
X2171445Y-2764281D01*
X2159761Y-2752597D01*
X2148331Y-2746755D01*
X2125218Y-2746755D01*
X2113788Y-2752597D01*
X2102104Y-2764281D01*
X2096261Y-2775712D01*
X2090674Y-2792984D01*
X2090674Y-2821939D01*
X2096261Y-2839212D01*
X2102104Y-2850642D01*
X2113788Y-2862326D01*
X2125218Y-2868168D01*
X2148331Y-2868168D01*
X2159761Y-2862326D01*
X2171445Y-2850642D01*
X2177288Y-2839212D01*
X2177288Y-2821939D01*
X2148331Y-2821939D02*
G01*
X2177288Y-2821939D01*
X2215388Y-2746755D02*
G01*
X2215388Y-2868168D01*
X2215388Y-2746755D02*
G01*
X2296159Y-2868168D01*
X2296159Y-2746755D02*
G01*
X2296159Y-2868168D01*
X2334259Y-2746755D02*
G01*
X2334259Y-2868168D01*
X2334259Y-2746755D02*
G01*
X2374645Y-2746755D01*
X2391918Y-2752597D01*
X2403602Y-2764281D01*
X2409190Y-2775712D01*
X2415031Y-2792984D01*
X2415031Y-2821939D01*
X2409190Y-2839212D01*
X2403602Y-2850642D01*
X2391918Y-2862326D01*
X2374645Y-2868168D01*
X2334259Y-2868168D01*
X2274061Y-3000755D02*
G01*
X2216404Y-3000755D01*
X2210561Y-3052826D01*
X2216404Y-3046984D01*
X2233675Y-3041142D01*
X2251202Y-3041142D01*
X2268474Y-3046984D01*
X2279904Y-3058668D01*
X2285745Y-3075939D01*
X2285745Y-3087370D01*
X2279904Y-3104642D01*
X2268474Y-3116326D01*
X2251202Y-3122168D01*
X2233675Y-3122168D01*
X2216404Y-3116326D01*
X2210561Y-3110484D01*
X2204974Y-3099054D01*
X2323845Y-3000755D02*
G01*
X2370074Y-3122168D01*
X2416302Y-3000755D02*
G01*
X2370074Y-3122168D01*
D22*
X1244600Y-2018284D02*
G01*
X1244600Y-2127250D01*
X1244600Y-2127250D02*
G01*
X1306829Y-2127250D01*
X1414018Y-2018284D02*
G01*
X1361947Y-2127250D01*
X1341120Y-2018284D02*
G01*
X1414018Y-2018284D01*
X1474215Y-2018284D02*
G01*
X1458721Y-2023363D01*
X1453387Y-2033778D01*
X1453387Y-2044192D01*
X1458721Y-2054605D01*
X1469136Y-2059939D01*
X1489710Y-2065020D01*
X1505457Y-2070100D01*
X1515871Y-2080513D01*
X1520952Y-2090928D01*
X1520952Y-2106676D01*
X1515871Y-2117089D01*
X1510537Y-2122170D01*
X1495044Y-2127250D01*
X1474215Y-2127250D01*
X1458721Y-2122170D01*
X1453387Y-2117089D01*
X1448307Y-2106676D01*
X1448307Y-2090928D01*
X1453387Y-2080513D01*
X1463802Y-2070100D01*
X1479550Y-2065020D01*
X1500123Y-2059939D01*
X1510537Y-2054605D01*
X1515871Y-2044192D01*
X1515871Y-2033778D01*
X1510537Y-2023363D01*
X1495044Y-2018284D01*
X1474215Y-2018284D01*
X1555242Y-2018284D02*
G01*
X1555242Y-2127250D01*
X1555242Y-2018284D02*
G01*
X1596897Y-2127250D01*
X1638300Y-2018284D02*
G01*
X1596897Y-2127250D01*
X1638300Y-2018284D02*
G01*
X1638300Y-2127250D01*
X1703831Y-2018284D02*
G01*
X1688337Y-2023363D01*
X1677923Y-2039112D01*
X1672589Y-2065020D01*
X1672589Y-2080513D01*
X1677923Y-2106676D01*
X1688337Y-2122170D01*
X1703831Y-2127250D01*
X1714245Y-2127250D01*
X1729739Y-2122170D01*
X1740154Y-2106676D01*
X1745487Y-2080513D01*
X1745487Y-2065020D01*
X1740154Y-2039112D01*
X1729739Y-2023363D01*
X1714245Y-2018284D01*
X1703831Y-2018284D01*
X1842007Y-2018284D02*
G01*
X1790192Y-2018284D01*
X1784857Y-2065020D01*
X1790192Y-2059939D01*
X1805686Y-2054605D01*
X1821179Y-2054605D01*
X1836928Y-2059939D01*
X1847342Y-2070100D01*
X1852421Y-2085847D01*
X1852421Y-2096262D01*
X1847342Y-2111755D01*
X1836928Y-2122170D01*
X1821179Y-2127250D01*
X1805686Y-2127250D01*
X1790192Y-2122170D01*
X1784857Y-2117089D01*
X1779778Y-2106676D01*
X1435100Y-2996184D02*
G01*
X1435100Y-3105150D01*
X1435100Y-2996184D02*
G01*
X1481836Y-2996184D01*
X1497329Y-3001263D01*
X1502663Y-3006597D01*
X1507744Y-3017012D01*
X1507744Y-3027426D01*
X1502663Y-3037839D01*
X1497329Y-3042920D01*
X1481836Y-3048000D01*
X1435100Y-3048000D01*
X1471421Y-3048000D02*
G01*
X1507744Y-3105150D01*
X1542034Y-3017012D02*
G01*
X1552447Y-3011678D01*
X1568195Y-2996184D01*
X1568195Y-3105150D01*
D24*
X1054100Y-1218184D02*
G01*
X1054100Y-1327150D01*
X1054100Y-1218184D02*
G01*
X1095755Y-1327150D01*
X1137157Y-1218184D02*
G01*
X1095755Y-1327150D01*
X1137157Y-1218184D02*
G01*
X1137157Y-1327150D01*
X1213104Y-1218184D02*
G01*
X1171447Y-1327150D01*
X1213104Y-1218184D02*
G01*
X1254760Y-1327150D01*
X1187195Y-1290828D02*
G01*
X1239012Y-1290828D01*
X1289050Y-1218184D02*
G01*
X1361694Y-1327150D01*
X1361694Y-1218184D02*
G01*
X1289050Y-1327150D01*
X1447800Y-1218184D02*
G01*
X1395984Y-1290828D01*
X1473962Y-1290828D01*
X1447800Y-1218184D02*
G01*
X1447800Y-1327150D01*
X1534160Y-1218184D02*
G01*
X1518665Y-1223263D01*
X1513331Y-1233678D01*
X1513331Y-1244092D01*
X1518665Y-1254505D01*
X1529079Y-1259839D01*
X1549654Y-1264920D01*
X1565402Y-1270000D01*
X1575815Y-1280413D01*
X1580895Y-1290828D01*
X1580895Y-1306576D01*
X1575815Y-1316989D01*
X1570481Y-1322070D01*
X1554987Y-1327150D01*
X1534160Y-1327150D01*
X1518665Y-1322070D01*
X1513331Y-1316989D01*
X1508252Y-1306576D01*
X1508252Y-1290828D01*
X1513331Y-1280413D01*
X1523745Y-1270000D01*
X1539239Y-1264920D01*
X1560068Y-1259839D01*
X1570481Y-1254505D01*
X1575815Y-1244092D01*
X1575815Y-1233678D01*
X1570481Y-1223263D01*
X1554987Y-1218184D01*
X1534160Y-1218184D01*
X1687829Y-1218184D02*
G01*
X1636013Y-1327150D01*
X1615186Y-1218184D02*
G01*
X1687829Y-1218184D01*
X1800097Y-1244092D02*
G01*
X1795018Y-1233678D01*
X1784604Y-1223263D01*
X1774189Y-1218184D01*
X1753362Y-1218184D01*
X1742947Y-1223263D01*
X1732534Y-1233678D01*
X1727454Y-1244092D01*
X1722120Y-1259839D01*
X1722120Y-1285747D01*
X1727454Y-1301242D01*
X1732534Y-1311655D01*
X1742947Y-1322070D01*
X1753362Y-1327150D01*
X1774189Y-1327150D01*
X1784604Y-1322070D01*
X1795018Y-1311655D01*
X1800097Y-1301242D01*
X1907286Y-1233678D02*
G01*
X1896871Y-1223263D01*
X1881123Y-1218184D01*
X1860550Y-1218184D01*
X1844802Y-1223263D01*
X1834387Y-1233678D01*
X1834387Y-1244092D01*
X1839721Y-1254505D01*
X1844802Y-1259839D01*
X1855215Y-1264920D01*
X1886457Y-1275334D01*
X1896871Y-1280413D01*
X1901952Y-1285747D01*
X1907286Y-1296162D01*
X1907286Y-1311655D01*
X1896871Y-1322070D01*
X1881123Y-1327150D01*
X1860550Y-1327150D01*
X1844802Y-1322070D01*
X1834387Y-1311655D01*
X1982977Y-1218184D02*
G01*
X1941575Y-1327150D01*
X1982977Y-1218184D02*
G01*
X2024634Y-1327150D01*
X1957070Y-1290828D02*
G01*
X2009140Y-1290828D01*
G36*
X522325Y-3614165D02*
G01*
X522325Y-3643680D01*
X552805Y-3643680D01*
X552805Y-3614165D01*
G37*
G36*
X522325Y-3773119D02*
G01*
X522325Y-3802634D01*
X552805Y-3802634D01*
X552805Y-3773119D01*
G37*
D10*
X2500022Y-3569398D02*
G01*
X2580025Y-3569398D01*
X2469037Y-3680373D02*
G01*
X2469037Y-3600376D01*
X2611003Y-3680373D02*
G01*
X2611003Y-3600376D01*
X2468455Y-3737963D02*
G01*
X2468455Y-3817962D01*
X2499438Y-3848945D02*
G01*
X2579436Y-3848945D01*
X2610416Y-3737963D02*
G01*
X2610416Y-3817962D01*
X2246022Y-3569398D02*
G01*
X2326025Y-3569398D01*
X2215037Y-3680373D02*
G01*
X2215037Y-3600376D01*
X2357003Y-3680373D02*
G01*
X2357003Y-3600376D01*
X2214455Y-3737963D02*
G01*
X2214455Y-3817962D01*
X2245438Y-3848945D02*
G01*
X2325436Y-3848945D01*
X2356416Y-3737963D02*
G01*
X2356416Y-3817962D01*
D22*
X545183Y-3621780D02*
G01*
X826416Y-3621780D01*
X826416Y-3621780D02*
G01*
X826416Y-3638580D01*
X545183Y-3795019D02*
G01*
X826416Y-3795019D01*
X826416Y-3795019D02*
G01*
X826416Y-3778219D01*
X580870Y-3621780D02*
G01*
X580870Y-3795019D01*
D10*
X2513200Y-282955D02*
G01*
X2513200Y-910899D01*
X2513200Y-282955D02*
G01*
X433199Y-282955D01*
X2513200Y-741154D02*
G01*
X433199Y-741154D01*
X2513200Y-457387D02*
G01*
X433199Y-457387D01*
X433199Y-282955D02*
G01*
X433199Y-910899D01*
X2513200Y-910899D02*
G01*
X433199Y-910899D01*
X527050Y-292100D02*
G01*
X647700Y-292100D01*
X647700Y-355600D01*
X527050Y-355600D01*
X527050Y-292100D01*
X768350Y-292100D02*
G01*
X889000Y-292100D01*
X889000Y-355600D01*
X768350Y-355600D01*
X768350Y-292100D01*
X1022350Y-292100D02*
G01*
X1143000Y-292100D01*
X1143000Y-355600D01*
X1022350Y-355600D01*
X1022350Y-292100D01*
X1276350Y-292100D02*
G01*
X1397000Y-292100D01*
X1397000Y-355600D01*
X1276350Y-355600D01*
X1276350Y-292100D01*
X1530350Y-292100D02*
G01*
X1651000Y-292100D01*
X1651000Y-355600D01*
X1530350Y-355600D01*
X1530350Y-292100D01*
X1784350Y-292100D02*
G01*
X1905000Y-292100D01*
X1905000Y-355600D01*
X1784350Y-355600D01*
X1784350Y-292100D01*
X2038350Y-292100D02*
G01*
X2159000Y-292100D01*
X2159000Y-355600D01*
X2038350Y-355600D01*
X2038350Y-292100D01*
X2292350Y-292100D02*
G01*
X2413000Y-292100D01*
X2413000Y-355600D01*
X2292350Y-355600D01*
X2292350Y-292100D01*
X991999Y-4009644D02*
G01*
X991999Y-3381700D01*
X991999Y-4009644D02*
G01*
X2056000Y-4009644D01*
X991999Y-3551445D02*
G01*
X2056000Y-3551445D01*
X991999Y-3835212D02*
G01*
X2056000Y-3835212D01*
X2056000Y-4009644D02*
G01*
X2056000Y-3381700D01*
X991999Y-3381700D02*
G01*
X2056000Y-3381700D01*
X1962150Y-4000500D02*
G01*
X1841500Y-4000500D01*
X1841500Y-3937000D01*
X1962150Y-3937000D01*
X1962150Y-4000500D01*
X1720850Y-4000500D02*
G01*
X1600200Y-4000500D01*
X1600200Y-3937000D01*
X1720850Y-3937000D01*
X1720850Y-4000500D01*
X1466850Y-4000500D02*
G01*
X1346200Y-4000500D01*
X1346200Y-3937000D01*
X1466850Y-3937000D01*
X1466850Y-4000500D01*
X1212850Y-4000500D02*
G01*
X1092200Y-4000500D01*
X1092200Y-3937000D01*
X1212850Y-3937000D01*
X1212850Y-4000500D01*
D23*
X210997Y-2049500D02*
G01*
X274497Y-1986000D01*
X210997Y-1922500D01*
X210997Y-1795500D01*
X274497Y-1732000D01*
X210997Y-1668500D01*
X210997Y-1541500D01*
X274497Y-1478000D01*
X210997Y-1414500D01*
X210997Y-1287500D01*
X274497Y-1224000D01*
X401497Y-1224000D01*
X464997Y-1287500D01*
X464997Y-1414500D01*
X401497Y-1478000D01*
X464997Y-1541500D01*
X464997Y-1668500D01*
X401497Y-1732000D01*
X464997Y-1795500D01*
X464997Y-1922500D01*
X401497Y-1986000D01*
X464997Y-2049500D01*
X464997Y-2176500D01*
X401497Y-2240000D01*
X464997Y-2303500D01*
X464997Y-2430500D01*
X401497Y-2494000D01*
X464997Y-2557500D01*
X464997Y-2684500D01*
X401497Y-2748000D01*
X464997Y-2811500D01*
X464997Y-2938500D01*
X401497Y-3002000D01*
X464997Y-3065500D01*
X464997Y-3192500D01*
X401497Y-3256000D01*
X274497Y-3256000D01*
X210997Y-3192500D01*
X210997Y-2176500D02*
G01*
X274497Y-2240000D01*
X210997Y-2303500D01*
X210997Y-2430500D02*
G01*
X274497Y-2494000D01*
X210997Y-2557500D01*
X210997Y-2684500D02*
G01*
X274497Y-2748000D01*
X210997Y-2811500D01*
X210997Y-2938500D02*
G01*
X274497Y-3002000D01*
X210997Y-3065500D01*
X210997Y-1287500D02*
G01*
X210997Y-1160500D01*
X2750997Y-1160500D01*
X2750997Y-1287500D01*
X2750997Y-1414500D01*
X2750997Y-1541500D01*
X2750997Y-1668500D01*
X2750997Y-1795500D01*
X2750997Y-1922500D01*
X2750997Y-4018000D01*
X401497Y-4018000D01*
X401497Y-3319500D01*
X210997Y-3319500D01*
X210997Y-1922500D01*
X210997Y-1795500D02*
G01*
X210997Y-1668500D01*
X210997Y-1541500D02*
G01*
X210997Y-1414500D01*
X2750997Y-1922500D02*
G01*
X2687497Y-1986000D01*
X2750997Y-2049500D01*
X2750997Y-2176500D02*
G01*
X2687497Y-2240000D01*
X2750997Y-2303500D01*
X2750997Y-2430500D02*
G01*
X2687497Y-2494000D01*
X2750997Y-2557500D01*
X2750997Y-2684500D02*
G01*
X2687497Y-2748000D01*
X2750997Y-2811500D01*
X2750997Y-2938500D02*
G01*
X2687497Y-3002000D01*
X2750997Y-3065500D01*
X2750997Y-3192500D02*
G01*
X2687497Y-3256000D01*
X2560497Y-3256000D01*
X2496997Y-3192500D01*
X2496997Y-3065500D01*
X2560497Y-3002000D01*
X2496997Y-2938500D01*
X2496997Y-2811500D01*
X2560497Y-2748000D01*
X2496997Y-2684500D01*
X2496997Y-2557500D01*
X2560497Y-2494000D01*
X2496997Y-2430500D01*
X2496997Y-2303500D01*
X2560497Y-2240000D01*
X2496997Y-2176500D01*
X2496997Y-2049500D01*
X2560497Y-1986000D01*
X2496997Y-1922500D01*
X2496997Y-1795500D01*
X2560497Y-1732000D01*
X2496997Y-1668500D01*
X2496997Y-1541500D01*
X2560497Y-1478000D01*
X2496997Y-1414500D01*
X2496997Y-1287500D01*
X2560497Y-1224000D01*
X2687497Y-1224000D01*
X2750997Y-1287500D01*
X2750997Y-1414500D02*
G01*
X2687497Y-1478000D01*
X2750997Y-1541500D01*
X2750997Y-1668500D02*
G01*
X2687497Y-1732000D01*
X2750997Y-1795500D01*
D24*
X1236814Y-2704947D02*
G01*
X1181188Y-2704947D01*
X1181188Y-2779115D01*
X1236814Y-2779115D01*
X1236814Y-2778074D01*
X1236814Y-2249931D02*
G01*
X1181188Y-2249931D01*
X1181188Y-2324100D01*
X1236814Y-2324100D01*
X1236814Y-2323058D01*
D22*
X1861926Y-2178715D02*
G01*
X1236690Y-2178715D01*
X1236690Y-2178715D02*
G01*
X1236690Y-2853954D01*
X1861926Y-2853954D02*
G01*
X1236690Y-2853954D01*
D10*
X1270000Y-3048000D02*
G01*
X1244600Y-3048000D01*
X1778000Y-3048000D02*
G01*
X1803400Y-3048000D01*
X1270000Y-3048000D02*
G01*
X1270000Y-2971800D01*
X1270000Y-3124200D02*
G01*
X1270000Y-3048000D01*
X1778000Y-3124200D02*
G01*
X1270000Y-3124200D01*
X1778000Y-3048000D02*
G01*
X1778000Y-3124200D01*
X1778000Y-2971800D02*
G01*
X1778000Y-3048000D01*
X1270000Y-2971800D02*
G01*
X1778000Y-2971800D01*
D22*
X1701540Y-1895919D02*
G01*
X1397259Y-1895919D01*
X1397259Y-1380680D01*
X1701540Y-1380680D01*
X1701540Y-1895919D01*
D10*
G75*
G01*
X2499439Y-3848951D02*
G02*
X2468456Y-3817968I0J30983D01*
G75*
G01*
X2610422Y-3817968D02*
G02*
X2579436Y-3848951I-30983J0D01*
G75*
G01*
X2469037Y-3600381D02*
G02*
X2500023Y-3569399I30983J0D01*
G75*
G01*
X2580020Y-3569399D02*
G02*
X2611003Y-3600381I0J-30982D01*
G75*
G01*
X2245439Y-3848951D02*
G02*
X2214456Y-3817968I0J30983D01*
G75*
G01*
X2356422Y-3817968D02*
G02*
X2325436Y-3848951I-30983J0D01*
G75*
G01*
X2215037Y-3600381D02*
G02*
X2246023Y-3569399I30983J0D01*
G75*
G01*
X2326020Y-3569399D02*
G02*
X2357003Y-3600381I0J-30982D01*
D26*
G75*
G01*
X1186175Y-2184408D02*
G03*
X1185921Y-2184408I-127J20000D01*
D25*
G75*
G01
X1641323Y-1828800D02*
G03X1641323Y-1828800I-15011J0D01*
G75*
G01
X1832661Y-1905533D02*
G03X1832661Y-1905533I-15011J0D01*
M02*
