G04 Layer: BottomLayer*
G04 EasyEDA v6.4.25, 2021-10-17T11:29:02+03:00*
G04 a1471bc6611e4e73a61749ba241ce28d,91e0e8a571584a8f85f685312bed6ac2,10*
G04 Gerber Generator version 0.2*
G04 Scale: 100 percent, Rotated: No, Reflected: No *
G04 Dimensions in millimeters *
G04 leading zeros omitted , absolute positions ,4 integer and 5 decimal *
%FSLAX45Y45*%
%MOMM*%

%ADD10C,0.2540*%
%ADD12C,0.6100*%
%ADD18C,1.8000*%
%ADD19R,1.8000X1.8000*%
%ADD20C,1.5080*%
%ADD21C,1.8796*%

%LPD*%
G36*
X297332Y-4128973D02*
G01*
X278942Y-4128058D01*
X262077Y-4125518D01*
X245516Y-4121302D01*
X229412Y-4115511D01*
X214020Y-4108145D01*
X199390Y-4099306D01*
X185724Y-4089095D01*
X173075Y-4077614D01*
X161645Y-4064914D01*
X151536Y-4051198D01*
X142798Y-4036517D01*
X135534Y-4021023D01*
X129794Y-4004919D01*
X125730Y-3988358D01*
X123240Y-3971442D01*
X122428Y-3954068D01*
X122428Y-2484526D01*
X123189Y-2480665D01*
X125374Y-2477363D01*
X128676Y-2475128D01*
X132588Y-2474366D01*
X136448Y-2475128D01*
X139750Y-2477363D01*
X239826Y-2577439D01*
X241858Y-2580335D01*
X242773Y-2583789D01*
X242468Y-2587294D01*
X238760Y-2600807D01*
X236931Y-2614218D01*
X236931Y-2627782D01*
X238760Y-2641193D01*
X242316Y-2654249D01*
X247599Y-2666695D01*
X254508Y-2678328D01*
X262890Y-2688945D01*
X272592Y-2698343D01*
X283514Y-2706370D01*
X295351Y-2712872D01*
X308000Y-2717749D01*
X321157Y-2720898D01*
X334619Y-2722219D01*
X348132Y-2721762D01*
X361492Y-2719527D01*
X374396Y-2715514D01*
X386689Y-2709824D01*
X398068Y-2702560D01*
X408432Y-2693822D01*
X417474Y-2683764D01*
X425145Y-2672638D01*
X431241Y-2660548D01*
X435660Y-2647746D01*
X438404Y-2634488D01*
X439267Y-2621026D01*
X438404Y-2607513D01*
X435660Y-2594254D01*
X431241Y-2581452D01*
X425145Y-2569362D01*
X417474Y-2558237D01*
X408432Y-2548178D01*
X398068Y-2539441D01*
X386689Y-2532176D01*
X374396Y-2526487D01*
X361492Y-2522474D01*
X348132Y-2520238D01*
X334619Y-2519781D01*
X321157Y-2521102D01*
X308000Y-2524252D01*
X305409Y-2525268D01*
X301599Y-2525928D01*
X297789Y-2525115D01*
X294589Y-2522982D01*
X207924Y-2436317D01*
X205740Y-2433015D01*
X204978Y-2429154D01*
X204978Y-2313025D01*
X205740Y-2309164D01*
X207924Y-2305862D01*
X211226Y-2303678D01*
X215138Y-2302865D01*
X218998Y-2303678D01*
X222300Y-2305862D01*
X239826Y-2323388D01*
X241858Y-2326284D01*
X242773Y-2329738D01*
X242468Y-2333244D01*
X238760Y-2346807D01*
X236931Y-2360218D01*
X236931Y-2373782D01*
X238760Y-2387193D01*
X242316Y-2400249D01*
X247599Y-2412695D01*
X254508Y-2424328D01*
X262890Y-2434945D01*
X272592Y-2444343D01*
X283514Y-2452370D01*
X295351Y-2458872D01*
X308000Y-2463749D01*
X321157Y-2466898D01*
X334619Y-2468219D01*
X348132Y-2467762D01*
X361492Y-2465527D01*
X374396Y-2461514D01*
X386689Y-2455824D01*
X398068Y-2448560D01*
X408432Y-2439822D01*
X417474Y-2429764D01*
X425145Y-2418638D01*
X431241Y-2406548D01*
X435660Y-2393746D01*
X438404Y-2380488D01*
X439267Y-2367026D01*
X438404Y-2353513D01*
X435660Y-2340254D01*
X431241Y-2327452D01*
X425145Y-2315362D01*
X417474Y-2304237D01*
X408432Y-2294178D01*
X398068Y-2285441D01*
X386689Y-2278176D01*
X374396Y-2272487D01*
X361492Y-2268474D01*
X348132Y-2266238D01*
X334619Y-2265781D01*
X321157Y-2267102D01*
X308000Y-2270252D01*
X305409Y-2271268D01*
X301599Y-2271928D01*
X297840Y-2271115D01*
X294589Y-2268931D01*
X263601Y-2237943D01*
X261366Y-2234641D01*
X260604Y-2230729D01*
X260604Y-2201621D01*
X261569Y-2197252D01*
X264312Y-2193747D01*
X268274Y-2191766D01*
X272745Y-2191664D01*
X276809Y-2193442D01*
X283514Y-2198370D01*
X295351Y-2204872D01*
X308000Y-2209749D01*
X321157Y-2212898D01*
X334619Y-2214219D01*
X348132Y-2213762D01*
X361492Y-2211527D01*
X374396Y-2207514D01*
X386689Y-2201824D01*
X398068Y-2194560D01*
X408432Y-2185822D01*
X417474Y-2175764D01*
X425145Y-2164638D01*
X431241Y-2152548D01*
X435660Y-2139746D01*
X438404Y-2126488D01*
X439267Y-2113026D01*
X438404Y-2099513D01*
X435660Y-2086254D01*
X433578Y-2080158D01*
X433019Y-2076399D01*
X433832Y-2072741D01*
X435965Y-2069642D01*
X1246174Y-1259433D01*
X1251254Y-1253236D01*
X1254810Y-1246581D01*
X1257046Y-1239316D01*
X1257808Y-1231290D01*
X1257808Y-695604D01*
X1258773Y-691286D01*
X1261516Y-687781D01*
X1265428Y-685749D01*
X1269898Y-685596D01*
X1273962Y-687374D01*
X1284122Y-694740D01*
X1296873Y-701751D01*
X1310386Y-707136D01*
X1324508Y-710742D01*
X1338935Y-712571D01*
X1353464Y-712571D01*
X1367891Y-710742D01*
X1382014Y-707136D01*
X1395526Y-701751D01*
X1399590Y-699516D01*
X1403756Y-698296D01*
X1408023Y-698906D01*
X1411681Y-701243D01*
X2525826Y-1815439D01*
X2527858Y-1818335D01*
X2528773Y-1821789D01*
X2528468Y-1825294D01*
X2524760Y-1838807D01*
X2522931Y-1852218D01*
X2522931Y-1865782D01*
X2524760Y-1879193D01*
X2528316Y-1892249D01*
X2533599Y-1904695D01*
X2540508Y-1916328D01*
X2548890Y-1926945D01*
X2558592Y-1936343D01*
X2569514Y-1944370D01*
X2581351Y-1950872D01*
X2594000Y-1955749D01*
X2607157Y-1958898D01*
X2620619Y-1960219D01*
X2634132Y-1959762D01*
X2647492Y-1957527D01*
X2660396Y-1953514D01*
X2672689Y-1947824D01*
X2684068Y-1940560D01*
X2693619Y-1932482D01*
X2696921Y-1930603D01*
X2700731Y-1930095D01*
X2704439Y-1931060D01*
X2707538Y-1933295D01*
X2709570Y-1936496D01*
X2710332Y-1940255D01*
X2710332Y-1967890D01*
X2709519Y-1971751D01*
X2707335Y-1975053D01*
X2667406Y-2014982D01*
X2664409Y-2017064D01*
X2660853Y-2017928D01*
X2657246Y-2017522D01*
X2647492Y-2014474D01*
X2634132Y-2012238D01*
X2620619Y-2011781D01*
X2607157Y-2013102D01*
X2594000Y-2016252D01*
X2581351Y-2021128D01*
X2569514Y-2027631D01*
X2558592Y-2035657D01*
X2548890Y-2045055D01*
X2540508Y-2055672D01*
X2533599Y-2067306D01*
X2528316Y-2079752D01*
X2524760Y-2092807D01*
X2522931Y-2106218D01*
X2522931Y-2119782D01*
X2524760Y-2133193D01*
X2528316Y-2146249D01*
X2533599Y-2158695D01*
X2540508Y-2170328D01*
X2548890Y-2180945D01*
X2558592Y-2190343D01*
X2569514Y-2198370D01*
X2581351Y-2204872D01*
X2594000Y-2209749D01*
X2607157Y-2212898D01*
X2620619Y-2214219D01*
X2634132Y-2213762D01*
X2647492Y-2211527D01*
X2660396Y-2207514D01*
X2672689Y-2201824D01*
X2684068Y-2194560D01*
X2694432Y-2185822D01*
X2703474Y-2175764D01*
X2711145Y-2164638D01*
X2717241Y-2152548D01*
X2721660Y-2139746D01*
X2724404Y-2126488D01*
X2725267Y-2113026D01*
X2724404Y-2099513D01*
X2721660Y-2086254D01*
X2719578Y-2080158D01*
X2719019Y-2076399D01*
X2719832Y-2072741D01*
X2721965Y-2069642D01*
X2775864Y-2015743D01*
X2780995Y-2009495D01*
X2784551Y-2002840D01*
X2786735Y-1995627D01*
X2787548Y-1987600D01*
X2787548Y-1825142D01*
X2786735Y-1817116D01*
X2784551Y-1809902D01*
X2780995Y-1803247D01*
X2775864Y-1796999D01*
X2683916Y-1705051D01*
X2682138Y-1703578D01*
X2679700Y-1700682D01*
X2678480Y-1697024D01*
X2678734Y-1693214D01*
X2680309Y-1689760D01*
X2694432Y-1677822D01*
X2703474Y-1667764D01*
X2711145Y-1656638D01*
X2717241Y-1644548D01*
X2721660Y-1631746D01*
X2724404Y-1618488D01*
X2725267Y-1605026D01*
X2724404Y-1591513D01*
X2721660Y-1578254D01*
X2717241Y-1565452D01*
X2711145Y-1553362D01*
X2703474Y-1542237D01*
X2694432Y-1532178D01*
X2684068Y-1523441D01*
X2672689Y-1516176D01*
X2660396Y-1510487D01*
X2647492Y-1506474D01*
X2634132Y-1504238D01*
X2620619Y-1503781D01*
X2607157Y-1505102D01*
X2594000Y-1508252D01*
X2581351Y-1513128D01*
X2569514Y-1519631D01*
X2558592Y-1527657D01*
X2548890Y-1537055D01*
X2540508Y-1547672D01*
X2533599Y-1559306D01*
X2528316Y-1571752D01*
X2525979Y-1580235D01*
X2524048Y-1583994D01*
X2520797Y-1586636D01*
X2516733Y-1587703D01*
X2512568Y-1587042D01*
X2509012Y-1584756D01*
X1643634Y-719378D01*
X1641449Y-716026D01*
X1640687Y-712114D01*
X1641449Y-708202D01*
X1643735Y-704900D01*
X1647088Y-702716D01*
X1649526Y-701751D01*
X1662277Y-694740D01*
X1674063Y-686206D01*
X1684680Y-676249D01*
X1693976Y-665022D01*
X1701749Y-652729D01*
X1707946Y-639572D01*
X1712468Y-625703D01*
X1715160Y-611428D01*
X1716074Y-596900D01*
X1715160Y-582371D01*
X1712468Y-568096D01*
X1707946Y-554228D01*
X1701749Y-541070D01*
X1693976Y-528777D01*
X1691386Y-525729D01*
X1689557Y-522376D01*
X1689100Y-518566D01*
X1690065Y-514908D01*
X1692300Y-511809D01*
X1695500Y-509778D01*
X1699260Y-509066D01*
X1707591Y-509066D01*
X1711452Y-509828D01*
X1714754Y-512064D01*
X1744776Y-542036D01*
X1747012Y-545490D01*
X1747723Y-549554D01*
X1746453Y-554228D01*
X1741932Y-568096D01*
X1739239Y-582371D01*
X1738325Y-596900D01*
X1739239Y-611428D01*
X1741932Y-625703D01*
X1746453Y-639572D01*
X1752650Y-652729D01*
X1760423Y-665022D01*
X1769719Y-676249D01*
X1780336Y-686206D01*
X1792122Y-694740D01*
X1804873Y-701751D01*
X1818386Y-707136D01*
X1832508Y-710742D01*
X1846935Y-712571D01*
X1861464Y-712571D01*
X1875891Y-710742D01*
X1890014Y-707136D01*
X1903526Y-701751D01*
X1916277Y-694740D01*
X1928063Y-686206D01*
X1938680Y-676249D01*
X1947976Y-665022D01*
X1955749Y-652729D01*
X1961946Y-639572D01*
X1966468Y-625703D01*
X1969160Y-611428D01*
X1970074Y-596900D01*
X1969160Y-582371D01*
X1966468Y-568096D01*
X1961946Y-554228D01*
X1955749Y-541070D01*
X1947976Y-528777D01*
X1938680Y-517550D01*
X1928063Y-507593D01*
X1916277Y-499059D01*
X1903526Y-492048D01*
X1890014Y-486664D01*
X1875891Y-483057D01*
X1861464Y-481228D01*
X1846935Y-481228D01*
X1832508Y-483057D01*
X1818386Y-486664D01*
X1810410Y-489864D01*
X1806549Y-490575D01*
X1802739Y-489762D01*
X1799488Y-487578D01*
X1787448Y-475538D01*
X1785264Y-472287D01*
X1784502Y-468376D01*
X1785264Y-464464D01*
X1787448Y-461213D01*
X1790750Y-458978D01*
X1794662Y-458216D01*
X1910689Y-458216D01*
X1914601Y-458978D01*
X1917903Y-461213D01*
X1998776Y-542036D01*
X2001012Y-545490D01*
X2001723Y-549554D01*
X2000453Y-554228D01*
X1995932Y-568096D01*
X1993239Y-582371D01*
X1992325Y-596900D01*
X1993239Y-611428D01*
X1995932Y-625703D01*
X2000453Y-639572D01*
X2006650Y-652729D01*
X2014423Y-665022D01*
X2023719Y-676249D01*
X2034336Y-686206D01*
X2046122Y-694740D01*
X2058873Y-701751D01*
X2072386Y-707136D01*
X2086508Y-710742D01*
X2100935Y-712571D01*
X2115464Y-712571D01*
X2129891Y-710742D01*
X2144014Y-707136D01*
X2157526Y-701751D01*
X2170277Y-694740D01*
X2182063Y-686206D01*
X2192680Y-676249D01*
X2201976Y-665022D01*
X2209749Y-652729D01*
X2215946Y-639572D01*
X2220468Y-625703D01*
X2223160Y-611428D01*
X2224074Y-596900D01*
X2223160Y-582371D01*
X2220468Y-568096D01*
X2215946Y-554228D01*
X2209749Y-541070D01*
X2201976Y-528777D01*
X2192680Y-517550D01*
X2182063Y-507593D01*
X2170277Y-499059D01*
X2157526Y-492048D01*
X2144014Y-486664D01*
X2129891Y-483057D01*
X2115464Y-481228D01*
X2100935Y-481228D01*
X2086508Y-483057D01*
X2072386Y-486664D01*
X2064410Y-489864D01*
X2060549Y-490575D01*
X2056739Y-489762D01*
X2053488Y-487578D01*
X1995322Y-429412D01*
X1993087Y-426110D01*
X1992325Y-422249D01*
X1993087Y-418338D01*
X1995322Y-415035D01*
X1998624Y-412851D01*
X2002485Y-412089D01*
X2118563Y-412089D01*
X2122474Y-412851D01*
X2125726Y-415035D01*
X2252776Y-542036D01*
X2255012Y-545490D01*
X2255723Y-549554D01*
X2254453Y-554228D01*
X2249932Y-568096D01*
X2247239Y-582371D01*
X2246325Y-596900D01*
X2247239Y-611428D01*
X2249932Y-625703D01*
X2254453Y-639572D01*
X2260650Y-652729D01*
X2268423Y-665022D01*
X2277719Y-676249D01*
X2288336Y-686206D01*
X2300122Y-694740D01*
X2312873Y-701751D01*
X2326386Y-707136D01*
X2340508Y-710742D01*
X2354935Y-712571D01*
X2369464Y-712571D01*
X2383891Y-710742D01*
X2398014Y-707136D01*
X2411526Y-701751D01*
X2424277Y-694740D01*
X2436063Y-686206D01*
X2446680Y-676249D01*
X2455976Y-665022D01*
X2463749Y-652729D01*
X2469946Y-639572D01*
X2474468Y-625703D01*
X2477160Y-611428D01*
X2478074Y-596900D01*
X2477160Y-582371D01*
X2474468Y-568096D01*
X2469946Y-554228D01*
X2463749Y-541070D01*
X2455976Y-528777D01*
X2446680Y-517550D01*
X2436063Y-507593D01*
X2424277Y-499059D01*
X2411526Y-492048D01*
X2398014Y-486664D01*
X2383891Y-483057D01*
X2369464Y-481228D01*
X2354935Y-481228D01*
X2340508Y-483057D01*
X2326386Y-486664D01*
X2318410Y-489864D01*
X2314549Y-490575D01*
X2310739Y-489762D01*
X2307488Y-487578D01*
X2166416Y-346506D01*
X2160168Y-341376D01*
X2153513Y-337820D01*
X2146300Y-335635D01*
X2138273Y-334873D01*
X875131Y-334873D01*
X867156Y-335635D01*
X859891Y-337820D01*
X853236Y-341376D01*
X846988Y-346506D01*
X705764Y-487781D01*
X702462Y-489966D01*
X698550Y-490728D01*
X694690Y-489966D01*
X690321Y-486714D01*
X685393Y-483616D01*
X679958Y-481685D01*
X673608Y-480974D01*
X635558Y-480974D01*
X635558Y-545541D01*
X653592Y-545541D01*
X657453Y-546303D01*
X660755Y-548538D01*
X662940Y-551840D01*
X663752Y-555701D01*
X663752Y-638098D01*
X662940Y-641959D01*
X660755Y-645261D01*
X657453Y-647496D01*
X653592Y-648258D01*
X635558Y-648258D01*
X635558Y-712825D01*
X653592Y-712825D01*
X657453Y-713587D01*
X660755Y-715772D01*
X662940Y-719074D01*
X663752Y-722985D01*
X663752Y-810564D01*
X662940Y-814425D01*
X660755Y-817727D01*
X139750Y-1338732D01*
X136448Y-1340967D01*
X132588Y-1341729D01*
X128676Y-1340967D01*
X125374Y-1338732D01*
X123189Y-1335430D01*
X122428Y-1331569D01*
X122428Y-355752D01*
X123342Y-337362D01*
X125882Y-320446D01*
X130098Y-303885D01*
X135890Y-287832D01*
X143256Y-272440D01*
X152044Y-257810D01*
X162306Y-244094D01*
X173786Y-231495D01*
X186486Y-220065D01*
X200202Y-209905D01*
X214884Y-201168D01*
X230378Y-193903D01*
X246430Y-188214D01*
X263042Y-184099D01*
X279958Y-181660D01*
X297332Y-180797D01*
X2695651Y-180797D01*
X2714040Y-181762D01*
X2730957Y-184302D01*
X2747518Y-188518D01*
X2763570Y-194310D01*
X2778963Y-201625D01*
X2793593Y-210464D01*
X2807309Y-220675D01*
X2819908Y-232206D01*
X2831338Y-244856D01*
X2841498Y-258622D01*
X2850235Y-273304D01*
X2857500Y-288747D01*
X2863189Y-304850D01*
X2867304Y-321411D01*
X2869742Y-338328D01*
X2870606Y-355752D01*
X2870606Y-3954068D01*
X2869641Y-3972458D01*
X2867101Y-3989324D01*
X2862884Y-4005884D01*
X2857093Y-4021937D01*
X2849727Y-4037380D01*
X2840939Y-4052011D01*
X2830728Y-4065676D01*
X2819196Y-4078325D01*
X2806547Y-4089755D01*
X2792780Y-4099864D01*
X2778099Y-4108602D01*
X2762656Y-4115866D01*
X2746552Y-4121607D01*
X2729941Y-4125671D01*
X2713075Y-4128160D01*
X2695651Y-4128973D01*
G37*

%LPC*%
G36*
X1815592Y-3811625D02*
G01*
X1853641Y-3811625D01*
X1853641Y-3747058D01*
X1789074Y-3747058D01*
X1789074Y-3785108D01*
X1789785Y-3791458D01*
X1791716Y-3796893D01*
X1794814Y-3801821D01*
X1798878Y-3805885D01*
X1803806Y-3808984D01*
X1809242Y-3810914D01*
G37*
G36*
X1956358Y-3811625D02*
G01*
X1994407Y-3811625D01*
X2000757Y-3810914D01*
X2006193Y-3808984D01*
X2011121Y-3805885D01*
X2015185Y-3801821D01*
X2018284Y-3796893D01*
X2020214Y-3791458D01*
X2020925Y-3785108D01*
X2020925Y-3747058D01*
X1956358Y-3747058D01*
G37*
G36*
X1135735Y-3811371D02*
G01*
X1150264Y-3811371D01*
X1164691Y-3809542D01*
X1178814Y-3805936D01*
X1192326Y-3800551D01*
X1205077Y-3793540D01*
X1216863Y-3785006D01*
X1227480Y-3775049D01*
X1236776Y-3763822D01*
X1244549Y-3751529D01*
X1250746Y-3738372D01*
X1255268Y-3724503D01*
X1257960Y-3710228D01*
X1258874Y-3695700D01*
X1257960Y-3681171D01*
X1255268Y-3666896D01*
X1250746Y-3653028D01*
X1244549Y-3639870D01*
X1236776Y-3627577D01*
X1227480Y-3616350D01*
X1216863Y-3606393D01*
X1205077Y-3597859D01*
X1192326Y-3590848D01*
X1178814Y-3585464D01*
X1164691Y-3581857D01*
X1150264Y-3580028D01*
X1135735Y-3580028D01*
X1121308Y-3581857D01*
X1107186Y-3585464D01*
X1093673Y-3590848D01*
X1080922Y-3597859D01*
X1069136Y-3606393D01*
X1058519Y-3616350D01*
X1049223Y-3627577D01*
X1041450Y-3639870D01*
X1035253Y-3653028D01*
X1030732Y-3666896D01*
X1028039Y-3681171D01*
X1027125Y-3695700D01*
X1028039Y-3710228D01*
X1030732Y-3724503D01*
X1035253Y-3738372D01*
X1041450Y-3751529D01*
X1049223Y-3763822D01*
X1058519Y-3775049D01*
X1069136Y-3785006D01*
X1080922Y-3793540D01*
X1093673Y-3800551D01*
X1107186Y-3805936D01*
X1121308Y-3809542D01*
G37*
G36*
X1643735Y-3811371D02*
G01*
X1658264Y-3811371D01*
X1672691Y-3809542D01*
X1686814Y-3805936D01*
X1700326Y-3800551D01*
X1713077Y-3793540D01*
X1724863Y-3785006D01*
X1735480Y-3775049D01*
X1744776Y-3763822D01*
X1752549Y-3751529D01*
X1758746Y-3738372D01*
X1763268Y-3724503D01*
X1765960Y-3710228D01*
X1766874Y-3695700D01*
X1765960Y-3681171D01*
X1763268Y-3666896D01*
X1758746Y-3653028D01*
X1752549Y-3639870D01*
X1744776Y-3627577D01*
X1735480Y-3616350D01*
X1724863Y-3606393D01*
X1713077Y-3597859D01*
X1700326Y-3590848D01*
X1686814Y-3585464D01*
X1672691Y-3581857D01*
X1658264Y-3580028D01*
X1643735Y-3580028D01*
X1629308Y-3581857D01*
X1615186Y-3585464D01*
X1601673Y-3590848D01*
X1588922Y-3597859D01*
X1577136Y-3606393D01*
X1566519Y-3616350D01*
X1557223Y-3627577D01*
X1549450Y-3639870D01*
X1543253Y-3653028D01*
X1538732Y-3666896D01*
X1536039Y-3681171D01*
X1535125Y-3695700D01*
X1536039Y-3710228D01*
X1538732Y-3724503D01*
X1543253Y-3738372D01*
X1549450Y-3751529D01*
X1557223Y-3763822D01*
X1566519Y-3775049D01*
X1577136Y-3785006D01*
X1588922Y-3793540D01*
X1601673Y-3800551D01*
X1615186Y-3805936D01*
X1629308Y-3809542D01*
G37*
G36*
X1389735Y-3811371D02*
G01*
X1404264Y-3811371D01*
X1418691Y-3809542D01*
X1432814Y-3805936D01*
X1446326Y-3800551D01*
X1459077Y-3793540D01*
X1470863Y-3785006D01*
X1481480Y-3775049D01*
X1490776Y-3763822D01*
X1498549Y-3751529D01*
X1504746Y-3738372D01*
X1509268Y-3724503D01*
X1511960Y-3710228D01*
X1512874Y-3695700D01*
X1511960Y-3681171D01*
X1509268Y-3666896D01*
X1504746Y-3653028D01*
X1498549Y-3639870D01*
X1490776Y-3627577D01*
X1481480Y-3616350D01*
X1470863Y-3606393D01*
X1459077Y-3597859D01*
X1446326Y-3590848D01*
X1442059Y-3589121D01*
X1438656Y-3586937D01*
X1436420Y-3583635D01*
X1435608Y-3579672D01*
X1435608Y-3576218D01*
X1436370Y-3572306D01*
X1438605Y-3569004D01*
X1847088Y-3160522D01*
X1850186Y-3158439D01*
X1853895Y-3157575D01*
X1857654Y-3158134D01*
X1872183Y-3163316D01*
X1886610Y-3166465D01*
X1901291Y-3167837D01*
X1916074Y-3167380D01*
X1930654Y-3165094D01*
X1944827Y-3161030D01*
X1958441Y-3155289D01*
X1971192Y-3147923D01*
X1982978Y-3139033D01*
X1993595Y-3128772D01*
X2002840Y-3117240D01*
X2010613Y-3104692D01*
X2016760Y-3091281D01*
X2021230Y-3077260D01*
X2023973Y-3062732D01*
X2024888Y-3048000D01*
X2023973Y-3033268D01*
X2021230Y-3018739D01*
X2016760Y-3004718D01*
X2010613Y-2991307D01*
X2002840Y-2978759D01*
X1993595Y-2967228D01*
X1982978Y-2956966D01*
X1971192Y-2948076D01*
X1958441Y-2940710D01*
X1944827Y-2934970D01*
X1930654Y-2930906D01*
X1916074Y-2928620D01*
X1901291Y-2928213D01*
X1886610Y-2929534D01*
X1872183Y-2932684D01*
X1858264Y-2937611D01*
X1845056Y-2944215D01*
X1832762Y-2952343D01*
X1821535Y-2961944D01*
X1811629Y-2972866D01*
X1803095Y-2984906D01*
X1796084Y-2997911D01*
X1790750Y-3011678D01*
X1787194Y-3025952D01*
X1785366Y-3040634D01*
X1785366Y-3055366D01*
X1787194Y-3070047D01*
X1790750Y-3084322D01*
X1794865Y-3094939D01*
X1795576Y-3098800D01*
X1794764Y-3102610D01*
X1792579Y-3105810D01*
X1370076Y-3528364D01*
X1364945Y-3534562D01*
X1361389Y-3541268D01*
X1359204Y-3548481D01*
X1358392Y-3556508D01*
X1358392Y-3579672D01*
X1357630Y-3583635D01*
X1355344Y-3586937D01*
X1351991Y-3589121D01*
X1347673Y-3590848D01*
X1334922Y-3597859D01*
X1323136Y-3606393D01*
X1312519Y-3616350D01*
X1303223Y-3627577D01*
X1295450Y-3639870D01*
X1289253Y-3653028D01*
X1284732Y-3666896D01*
X1282039Y-3681171D01*
X1281125Y-3695700D01*
X1282039Y-3710228D01*
X1284732Y-3724503D01*
X1289253Y-3738372D01*
X1295450Y-3751529D01*
X1303223Y-3763822D01*
X1312519Y-3775049D01*
X1323136Y-3785006D01*
X1334922Y-3793540D01*
X1347673Y-3800551D01*
X1361186Y-3805936D01*
X1375308Y-3809542D01*
G37*
G36*
X1789074Y-3644341D02*
G01*
X1853641Y-3644341D01*
X1853641Y-3579774D01*
X1815592Y-3579774D01*
X1809242Y-3580485D01*
X1803806Y-3582415D01*
X1798878Y-3585514D01*
X1794814Y-3589578D01*
X1791716Y-3594506D01*
X1789785Y-3599942D01*
X1789074Y-3606292D01*
G37*
G36*
X1956358Y-3644341D02*
G01*
X2020925Y-3644341D01*
X2020925Y-3606292D01*
X2020214Y-3599942D01*
X2018284Y-3594506D01*
X2015185Y-3589578D01*
X2011121Y-3585514D01*
X2006193Y-3582415D01*
X2000757Y-3580485D01*
X1994407Y-3579774D01*
X1956358Y-3579774D01*
G37*
G36*
X334619Y-3230219D02*
G01*
X348132Y-3229762D01*
X361492Y-3227527D01*
X374396Y-3223514D01*
X386689Y-3217824D01*
X398068Y-3210560D01*
X408432Y-3201822D01*
X417474Y-3191764D01*
X425145Y-3180638D01*
X431241Y-3168548D01*
X435660Y-3155746D01*
X438404Y-3142488D01*
X439267Y-3129026D01*
X438404Y-3115513D01*
X435660Y-3102254D01*
X431241Y-3089452D01*
X425145Y-3077362D01*
X417474Y-3066237D01*
X408432Y-3056178D01*
X398068Y-3047441D01*
X386689Y-3040176D01*
X374396Y-3034487D01*
X361492Y-3030474D01*
X348132Y-3028238D01*
X334619Y-3027781D01*
X321157Y-3029102D01*
X308000Y-3032252D01*
X295351Y-3037128D01*
X283514Y-3043631D01*
X272592Y-3051657D01*
X262890Y-3061055D01*
X254508Y-3071672D01*
X247599Y-3083306D01*
X242316Y-3095752D01*
X238760Y-3108807D01*
X236931Y-3122218D01*
X236931Y-3135782D01*
X238760Y-3149193D01*
X242316Y-3162249D01*
X247599Y-3174695D01*
X254508Y-3186328D01*
X262890Y-3196945D01*
X272592Y-3206343D01*
X283514Y-3214370D01*
X295351Y-3220872D01*
X308000Y-3225749D01*
X321157Y-3228898D01*
G37*
G36*
X2620619Y-3230219D02*
G01*
X2634132Y-3229762D01*
X2647492Y-3227527D01*
X2660396Y-3223514D01*
X2672689Y-3217824D01*
X2684068Y-3210560D01*
X2694432Y-3201822D01*
X2703474Y-3191764D01*
X2711145Y-3180638D01*
X2717241Y-3168548D01*
X2721660Y-3155746D01*
X2724404Y-3142488D01*
X2725267Y-3129026D01*
X2724404Y-3115513D01*
X2721660Y-3102254D01*
X2717241Y-3089452D01*
X2711145Y-3077362D01*
X2703474Y-3066237D01*
X2694432Y-3056178D01*
X2684068Y-3047441D01*
X2672689Y-3040176D01*
X2660396Y-3034487D01*
X2647492Y-3030474D01*
X2634132Y-3028238D01*
X2620619Y-3027781D01*
X2607157Y-3029102D01*
X2594000Y-3032252D01*
X2581351Y-3037128D01*
X2569514Y-3043631D01*
X2558592Y-3051657D01*
X2548890Y-3061055D01*
X2540508Y-3071672D01*
X2533599Y-3083306D01*
X2528316Y-3095752D01*
X2524760Y-3108807D01*
X2522931Y-3122218D01*
X2522931Y-3135782D01*
X2524760Y-3149193D01*
X2528316Y-3162249D01*
X2533599Y-3174695D01*
X2540508Y-3186328D01*
X2548890Y-3196945D01*
X2558592Y-3206343D01*
X2569514Y-3214370D01*
X2581351Y-3220872D01*
X2594000Y-3225749D01*
X2607157Y-3228898D01*
G37*
G36*
X1139291Y-3167837D02*
G01*
X1154074Y-3167380D01*
X1168654Y-3165094D01*
X1182827Y-3161030D01*
X1196441Y-3155289D01*
X1209192Y-3147923D01*
X1220978Y-3139033D01*
X1231595Y-3128772D01*
X1240840Y-3117240D01*
X1248613Y-3104692D01*
X1254760Y-3091281D01*
X1259230Y-3077260D01*
X1261973Y-3062732D01*
X1262888Y-3048000D01*
X1261973Y-3033268D01*
X1259230Y-3018739D01*
X1254760Y-3004718D01*
X1248613Y-2991307D01*
X1240840Y-2978759D01*
X1231595Y-2967228D01*
X1220978Y-2956966D01*
X1209192Y-2948076D01*
X1196441Y-2940710D01*
X1187805Y-2937052D01*
X1184554Y-2934817D01*
X1182370Y-2931566D01*
X1181608Y-2927705D01*
X1181608Y-1887474D01*
X1182370Y-1883613D01*
X1184605Y-1880311D01*
X1417929Y-1646986D01*
X1420825Y-1644954D01*
X1424228Y-1644040D01*
X1432255Y-1643329D01*
X1441754Y-1640789D01*
X1450644Y-1636623D01*
X1458722Y-1630984D01*
X1465681Y-1624025D01*
X1471320Y-1615998D01*
X1475435Y-1607108D01*
X1477975Y-1597609D01*
X1478838Y-1587804D01*
X1477975Y-1578000D01*
X1475435Y-1568551D01*
X1471320Y-1559610D01*
X1465681Y-1551584D01*
X1458722Y-1544624D01*
X1450644Y-1538986D01*
X1441754Y-1534820D01*
X1432255Y-1532280D01*
X1422501Y-1531416D01*
X1412697Y-1532280D01*
X1403197Y-1534820D01*
X1394307Y-1538986D01*
X1386230Y-1544624D01*
X1379321Y-1551584D01*
X1373682Y-1559610D01*
X1369517Y-1568551D01*
X1366977Y-1578000D01*
X1366266Y-1586077D01*
X1365351Y-1589481D01*
X1363319Y-1592376D01*
X1116076Y-1839620D01*
X1110945Y-1845868D01*
X1107389Y-1852523D01*
X1105204Y-1859737D01*
X1104392Y-1867763D01*
X1104392Y-2927553D01*
X1103579Y-2931617D01*
X1101140Y-2935020D01*
X1083056Y-2944215D01*
X1070762Y-2952343D01*
X1059535Y-2961944D01*
X1049629Y-2972866D01*
X1041095Y-2984906D01*
X1034084Y-2997911D01*
X1028750Y-3011678D01*
X1025194Y-3025952D01*
X1023366Y-3040634D01*
X1023366Y-3055366D01*
X1025194Y-3070047D01*
X1028750Y-3084322D01*
X1034084Y-3098088D01*
X1041095Y-3111093D01*
X1049629Y-3123133D01*
X1059535Y-3134055D01*
X1070762Y-3143656D01*
X1083056Y-3151784D01*
X1096264Y-3158388D01*
X1110183Y-3163316D01*
X1124610Y-3166465D01*
G37*
G36*
X334619Y-2976219D02*
G01*
X348132Y-2975762D01*
X361492Y-2973527D01*
X374396Y-2969514D01*
X386689Y-2963824D01*
X398068Y-2956560D01*
X408432Y-2947822D01*
X417474Y-2937764D01*
X425145Y-2926638D01*
X431241Y-2914548D01*
X435660Y-2901746D01*
X438404Y-2888488D01*
X439267Y-2875026D01*
X438404Y-2861513D01*
X435660Y-2848254D01*
X431241Y-2835452D01*
X425145Y-2823362D01*
X417474Y-2812237D01*
X408432Y-2802178D01*
X398068Y-2793441D01*
X386689Y-2786176D01*
X374396Y-2780487D01*
X361492Y-2776474D01*
X348132Y-2774238D01*
X334619Y-2773781D01*
X321157Y-2775102D01*
X308000Y-2778252D01*
X295351Y-2783128D01*
X283514Y-2789631D01*
X272592Y-2797657D01*
X262890Y-2807055D01*
X254508Y-2817672D01*
X247599Y-2829306D01*
X242316Y-2841752D01*
X238760Y-2854807D01*
X236931Y-2868218D01*
X236931Y-2881782D01*
X238760Y-2895193D01*
X242316Y-2908249D01*
X247599Y-2920695D01*
X254508Y-2932328D01*
X262890Y-2942945D01*
X272592Y-2952343D01*
X283514Y-2960370D01*
X295351Y-2966872D01*
X308000Y-2971749D01*
X321157Y-2974898D01*
G37*
G36*
X2579928Y-2966110D02*
G01*
X2579928Y-2919069D01*
X2532888Y-2919069D01*
X2533599Y-2920695D01*
X2540508Y-2932328D01*
X2548890Y-2942945D01*
X2558592Y-2952343D01*
X2569514Y-2960370D01*
G37*
G36*
X2668066Y-2965958D02*
G01*
X2672689Y-2963824D01*
X2684068Y-2956560D01*
X2694432Y-2947822D01*
X2703474Y-2937764D01*
X2711145Y-2926638D01*
X2714955Y-2919069D01*
X2668066Y-2919069D01*
G37*
G36*
X2668066Y-2830931D02*
G01*
X2714955Y-2830931D01*
X2711145Y-2823362D01*
X2703474Y-2812237D01*
X2694432Y-2802178D01*
X2684068Y-2793441D01*
X2672689Y-2786176D01*
X2668066Y-2784043D01*
G37*
G36*
X2532888Y-2830931D02*
G01*
X2579928Y-2830931D01*
X2579928Y-2783890D01*
X2569514Y-2789631D01*
X2558592Y-2797657D01*
X2548890Y-2807055D01*
X2540508Y-2817672D01*
X2533599Y-2829306D01*
G37*
G36*
X2620619Y-2722219D02*
G01*
X2634132Y-2721762D01*
X2647492Y-2719527D01*
X2660396Y-2715514D01*
X2672689Y-2709824D01*
X2684068Y-2702560D01*
X2694432Y-2693822D01*
X2703474Y-2683764D01*
X2711145Y-2672638D01*
X2717241Y-2660548D01*
X2721660Y-2647746D01*
X2724404Y-2634488D01*
X2725267Y-2621026D01*
X2724404Y-2607513D01*
X2721660Y-2594254D01*
X2717241Y-2581452D01*
X2711145Y-2569362D01*
X2703474Y-2558237D01*
X2694432Y-2548178D01*
X2684068Y-2539441D01*
X2672689Y-2532176D01*
X2660396Y-2526487D01*
X2647492Y-2522474D01*
X2634132Y-2520238D01*
X2620619Y-2519781D01*
X2607157Y-2521102D01*
X2594000Y-2524252D01*
X2581351Y-2529128D01*
X2569514Y-2535631D01*
X2558592Y-2543657D01*
X2548890Y-2553055D01*
X2540508Y-2563672D01*
X2533599Y-2575306D01*
X2528316Y-2587752D01*
X2524760Y-2600807D01*
X2522931Y-2614218D01*
X2522931Y-2627782D01*
X2524760Y-2641193D01*
X2528316Y-2654249D01*
X2533599Y-2666695D01*
X2540508Y-2678328D01*
X2548890Y-2688945D01*
X2558592Y-2698343D01*
X2569514Y-2706370D01*
X2581351Y-2712872D01*
X2594000Y-2717749D01*
X2607157Y-2720898D01*
G37*
G36*
X2620619Y-2468219D02*
G01*
X2634132Y-2467762D01*
X2647492Y-2465527D01*
X2660396Y-2461514D01*
X2672689Y-2455824D01*
X2684068Y-2448560D01*
X2694432Y-2439822D01*
X2703474Y-2429764D01*
X2711145Y-2418638D01*
X2717241Y-2406548D01*
X2721660Y-2393746D01*
X2724404Y-2380488D01*
X2725267Y-2367026D01*
X2724404Y-2353513D01*
X2721660Y-2340254D01*
X2717241Y-2327452D01*
X2711145Y-2315362D01*
X2703474Y-2304237D01*
X2694432Y-2294178D01*
X2684068Y-2285441D01*
X2672689Y-2278176D01*
X2660396Y-2272487D01*
X2647492Y-2268474D01*
X2634132Y-2266238D01*
X2620619Y-2265781D01*
X2607157Y-2267102D01*
X2594000Y-2270252D01*
X2581351Y-2275128D01*
X2569514Y-2281631D01*
X2558592Y-2289657D01*
X2548890Y-2299055D01*
X2540508Y-2309672D01*
X2533599Y-2321306D01*
X2528316Y-2333752D01*
X2524760Y-2346807D01*
X2522931Y-2360218D01*
X2522931Y-2373782D01*
X2524760Y-2387193D01*
X2528316Y-2400249D01*
X2533599Y-2412695D01*
X2540508Y-2424328D01*
X2548890Y-2434945D01*
X2558592Y-2444343D01*
X2569514Y-2452370D01*
X2581351Y-2458872D01*
X2594000Y-2463749D01*
X2607157Y-2466898D01*
G37*
G36*
X2620619Y-1452219D02*
G01*
X2634132Y-1451762D01*
X2647492Y-1449527D01*
X2660396Y-1445514D01*
X2672689Y-1439824D01*
X2684068Y-1432560D01*
X2694432Y-1423822D01*
X2703474Y-1413764D01*
X2711145Y-1402638D01*
X2717241Y-1390548D01*
X2721660Y-1377746D01*
X2724404Y-1364488D01*
X2725267Y-1351026D01*
X2724404Y-1337513D01*
X2721660Y-1324254D01*
X2717241Y-1311452D01*
X2711145Y-1299362D01*
X2703474Y-1288237D01*
X2694432Y-1278178D01*
X2684068Y-1269441D01*
X2672689Y-1262176D01*
X2660396Y-1256487D01*
X2647492Y-1252474D01*
X2634132Y-1250238D01*
X2620619Y-1249781D01*
X2607157Y-1251102D01*
X2594000Y-1254252D01*
X2581351Y-1259128D01*
X2569514Y-1265631D01*
X2558592Y-1273657D01*
X2548890Y-1283055D01*
X2540508Y-1293672D01*
X2533599Y-1305306D01*
X2528316Y-1317752D01*
X2524760Y-1330807D01*
X2522931Y-1344218D01*
X2522931Y-1357782D01*
X2524760Y-1371193D01*
X2528316Y-1384249D01*
X2533599Y-1396695D01*
X2540508Y-1408328D01*
X2548890Y-1418945D01*
X2558592Y-1428343D01*
X2569514Y-1436370D01*
X2581351Y-1442872D01*
X2594000Y-1447749D01*
X2607157Y-1450898D01*
G37*
G36*
X494792Y-712825D02*
G01*
X532841Y-712825D01*
X532841Y-648258D01*
X468274Y-648258D01*
X468274Y-686308D01*
X468985Y-692658D01*
X470916Y-698093D01*
X474014Y-703021D01*
X478078Y-707085D01*
X483006Y-710184D01*
X488442Y-712114D01*
G37*
G36*
X468274Y-545541D02*
G01*
X532841Y-545541D01*
X532841Y-480974D01*
X494792Y-480974D01*
X488442Y-481685D01*
X483006Y-483616D01*
X478078Y-486714D01*
X474014Y-490778D01*
X470916Y-495706D01*
X468985Y-501142D01*
X468274Y-507492D01*
G37*

%LPD*%
D10*
X338073Y-2367026D02*
G01*
X221995Y-2250947D01*
X221995Y-1543304D01*
X287273Y-1478026D01*
X401573Y-1478026D01*
X965200Y-914400D01*
X965200Y-508000D01*
X1053592Y-419607D01*
X1930908Y-419607D01*
X2108200Y-596900D01*
X1905007Y-3048002D02*
G01*
X1397007Y-3556002D01*
X1397007Y-3695702D01*
X1143007Y-3048002D02*
G01*
X1143007Y-1867283D01*
X1422483Y-1587807D01*
X338005Y-1605003D02*
G01*
X1092207Y-850800D01*
X1092207Y-596902D01*
X2624005Y-1859003D02*
G01*
X1361904Y-596902D01*
X1346207Y-596902D01*
X2624005Y-2113003D02*
G01*
X2748922Y-1988085D01*
X2748922Y-1824662D01*
X2656263Y-1732003D01*
X2601678Y-1732003D01*
X1600207Y-730531D01*
X1600207Y-596902D01*
X338005Y-2113003D02*
G01*
X1219207Y-1231800D01*
X1219207Y-550776D01*
X1299522Y-470461D01*
X1727766Y-470461D01*
X1854207Y-596902D01*
X338005Y-2621003D02*
G01*
X166352Y-2449349D01*
X166352Y-1366751D01*
X702343Y-830760D01*
X702343Y-545772D01*
X874656Y-373458D01*
X2138763Y-373458D01*
X2362207Y-596902D01*
D18*
G01*
X2362200Y-596900D03*
G01*
X2108200Y-596900D03*
G01*
X1854200Y-596900D03*
G01*
X1600200Y-596900D03*
G01*
X1346200Y-596900D03*
G01*
X1092200Y-596900D03*
G01*
X838200Y-596900D03*
G36*
X494200Y-506900D02*
G01*
X674199Y-506900D01*
X674199Y-686899D01*
X494200Y-686899D01*
G37*
G01*
X1143000Y-3695700D03*
G01*
X1397000Y-3695700D03*
G01*
X1651000Y-3695700D03*
D19*
G01*
X1905000Y-3695700D03*
D20*
G01*
X337997Y-2875000D03*
G01*
X337997Y-2621000D03*
G01*
X337997Y-2367000D03*
G01*
X337997Y-2113000D03*
G01*
X337997Y-1859000D03*
G01*
X337997Y-1605000D03*
G01*
X337997Y-1351000D03*
G01*
X2623997Y-2875000D03*
G01*
X2623997Y-2621000D03*
G01*
X2623997Y-2367000D03*
G01*
X2623997Y-2113000D03*
G01*
X2623997Y-1859000D03*
G01*
X2623997Y-1605000D03*
G01*
X2623997Y-1351000D03*
G01*
X337997Y-3129000D03*
G01*
X2623997Y-3129000D03*
D21*
G01*
X1143000Y-3048000D03*
G01*
X1905000Y-3048000D03*
D12*
G01*
X1422483Y-1587807D03*
M02*
