G04 Layer: TopLayer*
G04 EasyEDA v6.4.25, 2021-10-17T11:29:02+03:00*
G04 a1471bc6611e4e73a61749ba241ce28d,91e0e8a571584a8f85f685312bed6ac2,10*
G04 Gerber Generator version 0.2*
G04 Scale: 100 percent, Rotated: No, Reflected: No *
G04 Dimensions in millimeters *
G04 leading zeros omitted , absolute positions ,4 integer and 5 decimal *
%FSLAX45Y45*%
%MOMM*%

%ADD10C,0.2540*%
%ADD11C,0.6300*%
%ADD12C,0.6100*%
%ADD13R,0.9000X0.8000*%
%ADD18C,1.8000*%
%ADD19R,1.8000X1.8000*%
%ADD20C,1.5080*%
%ADD21C,1.8796*%

%LPD*%
G36*
X297332Y-4128973D02*
G01*
X278942Y-4128058D01*
X262077Y-4125518D01*
X245516Y-4121302D01*
X229412Y-4115511D01*
X214020Y-4108145D01*
X199390Y-4099306D01*
X185724Y-4089095D01*
X173075Y-4077614D01*
X161645Y-4064914D01*
X151536Y-4051198D01*
X142798Y-4036517D01*
X135534Y-4021023D01*
X129794Y-4004919D01*
X125730Y-3988358D01*
X123240Y-3971442D01*
X122428Y-3954068D01*
X122428Y-355752D01*
X123342Y-337362D01*
X125882Y-320446D01*
X130098Y-303885D01*
X135890Y-287832D01*
X143256Y-272440D01*
X152044Y-257810D01*
X162306Y-244094D01*
X173786Y-231495D01*
X186486Y-220065D01*
X200202Y-209905D01*
X214884Y-201168D01*
X230378Y-193903D01*
X246430Y-188214D01*
X263042Y-184099D01*
X279958Y-181660D01*
X297332Y-180797D01*
X2695651Y-180797D01*
X2714040Y-181762D01*
X2730957Y-184302D01*
X2747518Y-188518D01*
X2763570Y-194310D01*
X2778963Y-201625D01*
X2793593Y-210464D01*
X2807309Y-220675D01*
X2819908Y-232206D01*
X2831338Y-244856D01*
X2841498Y-258622D01*
X2850235Y-273304D01*
X2857500Y-288747D01*
X2863189Y-304850D01*
X2867304Y-321411D01*
X2869742Y-338328D01*
X2870606Y-355752D01*
X2870606Y-3954068D01*
X2869641Y-3972458D01*
X2867101Y-3989324D01*
X2862884Y-4005884D01*
X2857093Y-4021937D01*
X2849727Y-4037380D01*
X2840939Y-4052011D01*
X2830728Y-4065676D01*
X2819196Y-4078325D01*
X2806547Y-4089755D01*
X2792780Y-4099864D01*
X2778099Y-4108602D01*
X2762656Y-4115866D01*
X2746552Y-4121607D01*
X2729941Y-4125671D01*
X2713075Y-4128160D01*
X2695651Y-4128973D01*
G37*

%LPC*%
G36*
X790041Y-3944365D02*
G01*
X1970125Y-3944365D01*
X1978152Y-3943604D01*
X1985365Y-3941368D01*
X1992020Y-3937812D01*
X1998268Y-3932732D01*
X2182876Y-3748125D01*
X2186178Y-3745890D01*
X2190038Y-3745128D01*
X2204923Y-3745128D01*
X2209038Y-3745992D01*
X2212441Y-3748430D01*
X2214575Y-3752037D01*
X2257704Y-3752037D01*
X2259787Y-3748430D01*
X2263190Y-3745992D01*
X2267305Y-3745128D01*
X2304694Y-3745128D01*
X2308809Y-3745992D01*
X2312212Y-3748430D01*
X2314295Y-3752037D01*
X2357424Y-3752037D01*
X2359558Y-3748430D01*
X2362962Y-3745992D01*
X2367076Y-3745128D01*
X2458923Y-3745128D01*
X2463038Y-3745992D01*
X2466441Y-3748430D01*
X2468575Y-3752037D01*
X2511704Y-3752037D01*
X2513787Y-3748430D01*
X2517190Y-3745992D01*
X2521305Y-3745128D01*
X2539492Y-3745128D01*
X2547518Y-3744366D01*
X2555748Y-3741826D01*
X2559507Y-3741420D01*
X2563114Y-3742436D01*
X2566162Y-3744671D01*
X2568143Y-3747871D01*
X2568854Y-3752037D01*
X2610916Y-3752037D01*
X2610916Y-3738981D01*
X2610205Y-3732631D01*
X2608275Y-3727196D01*
X2605227Y-3722268D01*
X2601112Y-3718204D01*
X2599232Y-3716985D01*
X2596286Y-3714191D01*
X2594660Y-3710432D01*
X2594660Y-3706368D01*
X2596286Y-3702608D01*
X2599232Y-3699814D01*
X2601112Y-3698595D01*
X2605227Y-3694531D01*
X2608275Y-3689604D01*
X2610205Y-3684168D01*
X2610916Y-3677818D01*
X2610916Y-3598976D01*
X2610205Y-3592677D01*
X2608275Y-3587191D01*
X2605227Y-3582314D01*
X2601112Y-3578199D01*
X2596235Y-3575100D01*
X2590749Y-3573221D01*
X2584450Y-3572510D01*
X2495550Y-3572510D01*
X2489250Y-3573221D01*
X2483764Y-3575100D01*
X2478887Y-3578199D01*
X2474772Y-3582314D01*
X2471724Y-3587191D01*
X2469794Y-3592677D01*
X2469083Y-3598976D01*
X2469083Y-3657752D01*
X2468321Y-3661664D01*
X2466136Y-3664915D01*
X2462834Y-3667150D01*
X2458923Y-3667912D01*
X2367076Y-3667912D01*
X2363165Y-3667150D01*
X2359863Y-3664915D01*
X2357678Y-3661664D01*
X2356916Y-3657752D01*
X2356916Y-3598976D01*
X2356205Y-3592677D01*
X2354275Y-3587191D01*
X2351227Y-3582314D01*
X2347112Y-3578199D01*
X2342235Y-3575100D01*
X2336749Y-3573221D01*
X2333650Y-3572865D01*
X2330094Y-3571798D01*
X2327198Y-3569512D01*
X2325268Y-3566414D01*
X2324608Y-3562756D01*
X2324608Y-3487216D01*
X2325370Y-3483305D01*
X2327605Y-3480003D01*
X2580589Y-3227019D01*
X2583789Y-3224885D01*
X2587599Y-3224072D01*
X2591409Y-3224733D01*
X2594000Y-3225749D01*
X2607157Y-3228898D01*
X2620619Y-3230219D01*
X2634132Y-3229762D01*
X2647492Y-3227527D01*
X2660396Y-3223514D01*
X2672689Y-3217824D01*
X2684068Y-3210560D01*
X2694432Y-3201822D01*
X2703474Y-3191764D01*
X2711145Y-3180638D01*
X2717241Y-3168548D01*
X2721660Y-3155746D01*
X2724404Y-3142488D01*
X2725267Y-3129026D01*
X2724404Y-3115513D01*
X2721660Y-3102254D01*
X2717241Y-3089452D01*
X2711145Y-3077362D01*
X2703474Y-3066237D01*
X2694432Y-3056178D01*
X2684068Y-3047441D01*
X2672689Y-3040176D01*
X2660396Y-3034487D01*
X2647492Y-3030474D01*
X2634132Y-3028238D01*
X2620619Y-3027781D01*
X2607157Y-3029102D01*
X2594000Y-3032252D01*
X2581351Y-3037128D01*
X2569514Y-3043631D01*
X2558592Y-3051657D01*
X2548890Y-3061055D01*
X2540508Y-3071672D01*
X2533599Y-3083306D01*
X2528316Y-3095752D01*
X2524760Y-3108807D01*
X2522931Y-3122218D01*
X2522931Y-3135782D01*
X2524760Y-3149193D01*
X2528468Y-3162706D01*
X2528773Y-3166262D01*
X2527858Y-3169666D01*
X2525826Y-3172561D01*
X2259076Y-3439363D01*
X2253945Y-3445560D01*
X2250389Y-3452266D01*
X2248204Y-3459479D01*
X2247392Y-3467506D01*
X2247392Y-3511804D01*
X2246630Y-3515715D01*
X2244445Y-3518966D01*
X2241143Y-3521201D01*
X2237232Y-3521964D01*
X1601724Y-3521964D01*
X1593748Y-3522726D01*
X1586534Y-3524910D01*
X1579829Y-3528466D01*
X1573631Y-3533597D01*
X1497076Y-3609848D01*
X1494129Y-3613404D01*
X1490929Y-3615994D01*
X1486966Y-3617112D01*
X1482852Y-3616502D01*
X1479346Y-3614369D01*
X1470863Y-3606393D01*
X1459077Y-3597859D01*
X1446326Y-3590848D01*
X1432814Y-3585464D01*
X1418691Y-3581857D01*
X1406194Y-3580282D01*
X1402740Y-3579164D01*
X1399844Y-3576929D01*
X1397965Y-3573779D01*
X1397304Y-3570224D01*
X1397304Y-2852420D01*
X1398066Y-2848508D01*
X1400302Y-2845206D01*
X1403604Y-2843022D01*
X1407464Y-2842260D01*
X1550263Y-2842260D01*
X1550263Y-2672689D01*
X1407464Y-2672689D01*
X1403604Y-2671927D01*
X1400302Y-2669692D01*
X1398066Y-2666441D01*
X1397304Y-2662529D01*
X1397304Y-2370175D01*
X1398066Y-2366264D01*
X1400302Y-2362962D01*
X1403604Y-2360777D01*
X1407464Y-2360015D01*
X1550263Y-2360015D01*
X1550263Y-2190445D01*
X1407464Y-2190445D01*
X1403604Y-2189683D01*
X1400302Y-2187448D01*
X1398066Y-2184146D01*
X1397304Y-2180285D01*
X1397304Y-2062378D01*
X1398066Y-2058466D01*
X1400302Y-2055164D01*
X1435760Y-2019706D01*
X1440891Y-2013457D01*
X1444447Y-2006803D01*
X1446631Y-1999589D01*
X1447444Y-1991563D01*
X1447444Y-1805635D01*
X1446631Y-1797608D01*
X1444447Y-1790395D01*
X1440891Y-1783689D01*
X1435760Y-1777492D01*
X1396492Y-1738172D01*
X1394155Y-1734566D01*
X1393545Y-1730298D01*
X1394714Y-1726184D01*
X1395425Y-1724863D01*
X1398524Y-1715871D01*
X1400098Y-1706422D01*
X1401419Y-1702866D01*
X1403959Y-1700022D01*
X1407312Y-1698345D01*
X1411681Y-1698040D01*
X1688693Y-1698040D01*
X1692198Y-1698650D01*
X1695246Y-1700428D01*
X1697532Y-1703171D01*
X1698701Y-1706524D01*
X1700275Y-1715871D01*
X1703374Y-1724863D01*
X1707845Y-1733194D01*
X1713687Y-1740662D01*
X1720646Y-1747062D01*
X1728571Y-1752244D01*
X1737106Y-1756003D01*
X1740306Y-1758238D01*
X1742439Y-1761489D01*
X1743202Y-1765300D01*
X1742439Y-1769110D01*
X1740306Y-1772361D01*
X1737106Y-1774596D01*
X1728571Y-1778355D01*
X1720646Y-1783537D01*
X1713687Y-1789938D01*
X1707845Y-1797405D01*
X1703374Y-1805736D01*
X1700275Y-1814728D01*
X1698701Y-1824075D01*
X1698701Y-1833524D01*
X1700275Y-1842871D01*
X1703374Y-1851863D01*
X1707845Y-1860194D01*
X1713687Y-1867662D01*
X1720646Y-1874062D01*
X1728571Y-1879244D01*
X1737258Y-1883054D01*
X1746453Y-1885391D01*
X1756308Y-1886204D01*
X1878990Y-1886204D01*
X1888845Y-1885391D01*
X1898040Y-1883054D01*
X1906727Y-1879244D01*
X1914652Y-1874062D01*
X1918970Y-1870100D01*
X1922170Y-1868119D01*
X1925828Y-1867407D01*
X2311146Y-1867407D01*
X2319172Y-1866595D01*
X2326386Y-1864410D01*
X2333091Y-1860854D01*
X2339289Y-1855724D01*
X2424226Y-1770837D01*
X2427528Y-1768602D01*
X2431440Y-1767839D01*
X2547772Y-1767839D01*
X2551684Y-1768602D01*
X2554986Y-1770837D01*
X2557170Y-1774189D01*
X2557932Y-1778101D01*
X2557119Y-1782013D01*
X2554833Y-1785315D01*
X2548890Y-1791055D01*
X2540508Y-1801672D01*
X2533599Y-1813306D01*
X2528316Y-1825752D01*
X2524760Y-1838807D01*
X2522931Y-1852218D01*
X2522931Y-1865782D01*
X2524760Y-1879193D01*
X2528316Y-1892249D01*
X2533599Y-1904695D01*
X2540508Y-1916328D01*
X2548890Y-1926945D01*
X2558592Y-1936343D01*
X2569514Y-1944370D01*
X2581351Y-1950872D01*
X2594000Y-1955749D01*
X2607157Y-1958898D01*
X2620619Y-1960219D01*
X2634132Y-1959762D01*
X2647492Y-1957527D01*
X2660396Y-1953514D01*
X2672689Y-1947824D01*
X2684068Y-1940560D01*
X2694432Y-1931822D01*
X2703474Y-1921764D01*
X2711145Y-1910638D01*
X2717241Y-1898548D01*
X2721660Y-1885746D01*
X2724404Y-1872488D01*
X2725267Y-1859025D01*
X2724404Y-1845513D01*
X2721660Y-1832254D01*
X2717241Y-1819452D01*
X2711145Y-1807362D01*
X2703474Y-1796237D01*
X2694330Y-1786077D01*
X2689555Y-1781860D01*
X2687218Y-1778812D01*
X2686202Y-1775053D01*
X2686659Y-1771192D01*
X2688539Y-1767789D01*
X2691536Y-1765350D01*
X2699105Y-1761286D01*
X2705303Y-1756156D01*
X2782824Y-1678635D01*
X2787954Y-1672437D01*
X2791510Y-1665732D01*
X2793695Y-1658518D01*
X2794508Y-1650492D01*
X2794508Y-1483360D01*
X2793695Y-1475333D01*
X2791510Y-1468120D01*
X2787954Y-1461414D01*
X2782824Y-1455216D01*
X2722016Y-1394358D01*
X2719882Y-1391208D01*
X2719019Y-1387551D01*
X2719578Y-1383842D01*
X2721660Y-1377746D01*
X2724404Y-1364488D01*
X2725267Y-1351026D01*
X2724404Y-1337513D01*
X2721660Y-1324254D01*
X2717241Y-1311452D01*
X2711145Y-1299362D01*
X2703474Y-1288237D01*
X2694432Y-1278178D01*
X2684068Y-1269441D01*
X2672689Y-1262176D01*
X2660396Y-1256487D01*
X2647492Y-1252474D01*
X2634132Y-1250238D01*
X2620619Y-1249781D01*
X2607157Y-1251102D01*
X2594000Y-1254252D01*
X2581351Y-1259128D01*
X2569514Y-1265631D01*
X2558592Y-1273657D01*
X2548890Y-1283055D01*
X2540508Y-1293672D01*
X2533599Y-1305306D01*
X2528316Y-1317752D01*
X2524760Y-1330807D01*
X2522931Y-1344218D01*
X2522931Y-1357782D01*
X2524760Y-1371193D01*
X2528316Y-1384249D01*
X2533599Y-1396695D01*
X2540508Y-1408328D01*
X2548890Y-1418945D01*
X2558592Y-1428343D01*
X2569514Y-1436370D01*
X2581351Y-1442872D01*
X2594000Y-1447749D01*
X2607157Y-1450898D01*
X2620619Y-1452219D01*
X2634132Y-1451762D01*
X2647492Y-1449527D01*
X2657246Y-1446479D01*
X2660904Y-1446072D01*
X2664460Y-1446936D01*
X2667457Y-1449019D01*
X2714294Y-1495856D01*
X2716530Y-1499158D01*
X2717292Y-1503070D01*
X2717292Y-1531112D01*
X2716479Y-1535074D01*
X2714193Y-1538427D01*
X2710789Y-1540611D01*
X2706776Y-1541272D01*
X2702864Y-1540306D01*
X2699613Y-1537919D01*
X2694432Y-1532178D01*
X2684068Y-1523441D01*
X2672689Y-1516176D01*
X2660396Y-1510487D01*
X2647492Y-1506474D01*
X2634132Y-1504238D01*
X2620619Y-1503781D01*
X2607157Y-1505102D01*
X2594000Y-1508252D01*
X2591409Y-1509268D01*
X2587599Y-1509928D01*
X2583789Y-1509115D01*
X2580589Y-1506982D01*
X2494483Y-1420876D01*
X2488234Y-1415745D01*
X2481580Y-1412189D01*
X2474315Y-1410004D01*
X2466289Y-1409192D01*
X1925828Y-1409192D01*
X1922170Y-1408480D01*
X1918970Y-1406499D01*
X1914652Y-1402537D01*
X1906727Y-1397355D01*
X1898040Y-1393545D01*
X1888845Y-1391208D01*
X1878990Y-1390396D01*
X1756308Y-1390396D01*
X1746453Y-1391208D01*
X1737258Y-1393545D01*
X1728571Y-1397355D01*
X1720646Y-1402537D01*
X1713687Y-1408938D01*
X1707845Y-1416405D01*
X1703374Y-1424736D01*
X1700275Y-1433728D01*
X1698701Y-1443075D01*
X1698701Y-1452524D01*
X1700275Y-1461871D01*
X1703374Y-1470863D01*
X1707845Y-1479194D01*
X1713687Y-1486662D01*
X1720646Y-1493062D01*
X1728571Y-1498244D01*
X1737106Y-1502003D01*
X1740306Y-1504238D01*
X1742439Y-1507490D01*
X1743202Y-1511300D01*
X1742439Y-1515110D01*
X1740306Y-1518361D01*
X1737106Y-1520596D01*
X1728571Y-1524355D01*
X1720646Y-1529537D01*
X1713687Y-1535938D01*
X1707845Y-1543405D01*
X1703374Y-1551736D01*
X1700275Y-1560728D01*
X1698701Y-1570075D01*
X1698701Y-1579524D01*
X1700275Y-1588871D01*
X1703374Y-1597863D01*
X1707692Y-1605838D01*
X1708861Y-1609852D01*
X1708353Y-1613966D01*
X1706219Y-1617573D01*
X1702816Y-1619961D01*
X1698752Y-1620824D01*
X1484985Y-1620824D01*
X1481328Y-1620164D01*
X1478178Y-1618234D01*
X1475943Y-1615287D01*
X1474876Y-1611731D01*
X1475181Y-1608023D01*
X1477975Y-1597609D01*
X1478838Y-1587804D01*
X1477975Y-1578000D01*
X1475435Y-1568551D01*
X1471320Y-1559610D01*
X1465681Y-1551584D01*
X1458722Y-1544624D01*
X1450644Y-1538986D01*
X1441754Y-1534820D01*
X1432255Y-1532280D01*
X1422501Y-1531416D01*
X1412697Y-1532280D01*
X1398066Y-1536192D01*
X1389329Y-1536192D01*
X1385671Y-1535480D01*
X1382471Y-1533499D01*
X1378153Y-1529537D01*
X1370228Y-1524355D01*
X1361694Y-1520596D01*
X1358493Y-1518361D01*
X1356360Y-1515110D01*
X1355598Y-1511300D01*
X1356360Y-1507490D01*
X1358493Y-1504238D01*
X1361694Y-1502003D01*
X1370228Y-1498244D01*
X1378153Y-1493062D01*
X1385112Y-1486662D01*
X1390954Y-1479194D01*
X1395425Y-1470863D01*
X1395780Y-1469898D01*
X1334109Y-1469898D01*
X1334109Y-1507236D01*
X1333347Y-1511096D01*
X1331163Y-1514398D01*
X1327861Y-1516634D01*
X1323949Y-1517396D01*
X1238351Y-1517396D01*
X1234440Y-1516634D01*
X1231138Y-1514398D01*
X1228953Y-1511096D01*
X1228191Y-1507236D01*
X1228191Y-1469898D01*
X1166520Y-1469898D01*
X1166876Y-1470863D01*
X1171346Y-1479194D01*
X1177188Y-1486662D01*
X1184148Y-1493062D01*
X1192072Y-1498244D01*
X1200607Y-1502003D01*
X1203807Y-1504238D01*
X1205941Y-1507490D01*
X1206703Y-1511300D01*
X1205941Y-1515110D01*
X1203807Y-1518361D01*
X1200607Y-1520596D01*
X1192072Y-1524355D01*
X1184148Y-1529537D01*
X1177188Y-1535938D01*
X1171346Y-1543405D01*
X1166876Y-1551736D01*
X1163777Y-1560728D01*
X1162202Y-1570075D01*
X1162202Y-1579524D01*
X1163624Y-1587855D01*
X1163370Y-1592224D01*
X1161338Y-1596085D01*
X1157884Y-1598777D01*
X1153566Y-1599692D01*
X600354Y-1599692D01*
X596442Y-1598930D01*
X593140Y-1596694D01*
X590956Y-1593443D01*
X590194Y-1589532D01*
X590956Y-1585671D01*
X593140Y-1582369D01*
X865124Y-1310335D01*
X870254Y-1304137D01*
X873810Y-1297432D01*
X875995Y-1290218D01*
X876808Y-1282192D01*
X876808Y-712927D01*
X877620Y-708964D01*
X879856Y-705662D01*
X883208Y-703478D01*
X887526Y-701751D01*
X900277Y-694740D01*
X912063Y-686206D01*
X922680Y-676249D01*
X931976Y-665022D01*
X939749Y-652729D01*
X945946Y-639572D01*
X950468Y-625703D01*
X953160Y-611428D01*
X954074Y-596900D01*
X953160Y-582371D01*
X950468Y-568096D01*
X945946Y-554228D01*
X939749Y-541070D01*
X931976Y-528777D01*
X922680Y-517550D01*
X912063Y-507593D01*
X900277Y-499059D01*
X887526Y-492048D01*
X874014Y-486664D01*
X859891Y-483057D01*
X845464Y-481228D01*
X830935Y-481228D01*
X816508Y-483057D01*
X802386Y-486664D01*
X788873Y-492048D01*
X776122Y-499059D01*
X764336Y-507593D01*
X753719Y-517550D01*
X744423Y-528777D01*
X736650Y-541070D01*
X730453Y-554228D01*
X725932Y-568096D01*
X723239Y-582371D01*
X722325Y-596900D01*
X723239Y-611428D01*
X725932Y-625703D01*
X730453Y-639572D01*
X736650Y-652729D01*
X744423Y-665022D01*
X753719Y-676249D01*
X764336Y-686206D01*
X776122Y-694740D01*
X788873Y-701751D01*
X793191Y-703478D01*
X796544Y-705662D01*
X798779Y-708964D01*
X799592Y-712927D01*
X799592Y-1262481D01*
X798830Y-1266393D01*
X796594Y-1269695D01*
X456488Y-1609801D01*
X453288Y-1611985D01*
X449529Y-1612798D01*
X445719Y-1612138D01*
X442468Y-1610106D01*
X440131Y-1607007D01*
X439166Y-1603298D01*
X438404Y-1591513D01*
X435660Y-1578254D01*
X431241Y-1565452D01*
X425145Y-1553362D01*
X417474Y-1542237D01*
X408432Y-1532178D01*
X398068Y-1523441D01*
X386689Y-1516176D01*
X374396Y-1510487D01*
X361492Y-1506474D01*
X348132Y-1504238D01*
X334619Y-1503781D01*
X321157Y-1505102D01*
X308000Y-1508252D01*
X295351Y-1513128D01*
X283514Y-1519631D01*
X272592Y-1527657D01*
X262890Y-1537055D01*
X254508Y-1547672D01*
X247599Y-1559306D01*
X242316Y-1571752D01*
X238760Y-1584807D01*
X236931Y-1598218D01*
X236931Y-1611782D01*
X238760Y-1625193D01*
X242316Y-1638249D01*
X247599Y-1650695D01*
X254508Y-1662328D01*
X262890Y-1672945D01*
X272592Y-1682343D01*
X278892Y-1686966D01*
X281635Y-1690014D01*
X282956Y-1693824D01*
X282651Y-1697888D01*
X280771Y-1701495D01*
X277672Y-1704136D01*
X270662Y-1707845D01*
X264464Y-1712975D01*
X204470Y-1772970D01*
X199339Y-1779168D01*
X195783Y-1785874D01*
X193598Y-1793087D01*
X192786Y-1801114D01*
X192786Y-3021838D01*
X193598Y-3029864D01*
X195783Y-3037078D01*
X199339Y-3043783D01*
X204470Y-3049981D01*
X239826Y-3085388D01*
X241858Y-3088284D01*
X242773Y-3091738D01*
X242468Y-3095244D01*
X238760Y-3108807D01*
X236931Y-3122218D01*
X236931Y-3135782D01*
X238760Y-3149193D01*
X242316Y-3162249D01*
X247599Y-3174695D01*
X254508Y-3186328D01*
X262890Y-3196945D01*
X272592Y-3206343D01*
X283514Y-3214370D01*
X295351Y-3220872D01*
X308000Y-3225749D01*
X321157Y-3228898D01*
X334619Y-3230219D01*
X348132Y-3229762D01*
X361492Y-3227527D01*
X374396Y-3223514D01*
X386689Y-3217824D01*
X398068Y-3210560D01*
X408432Y-3201822D01*
X417474Y-3191764D01*
X425145Y-3180638D01*
X431241Y-3168548D01*
X435660Y-3155746D01*
X438404Y-3142488D01*
X439267Y-3129026D01*
X438404Y-3115513D01*
X435660Y-3102254D01*
X431241Y-3089452D01*
X425145Y-3077362D01*
X417474Y-3066237D01*
X408432Y-3056178D01*
X398068Y-3047441D01*
X386689Y-3040176D01*
X374396Y-3034487D01*
X361492Y-3030474D01*
X348132Y-3028238D01*
X334619Y-3027781D01*
X321157Y-3029102D01*
X308000Y-3032252D01*
X305409Y-3033268D01*
X301599Y-3033928D01*
X297840Y-3033115D01*
X294589Y-3030931D01*
X272999Y-3009341D01*
X270764Y-3006039D01*
X270002Y-3002127D01*
X270002Y-2970123D01*
X270865Y-2966059D01*
X273304Y-2962656D01*
X276910Y-2960522D01*
X281025Y-2960014D01*
X285038Y-2961233D01*
X295351Y-2966872D01*
X308000Y-2971749D01*
X321157Y-2974898D01*
X334619Y-2976219D01*
X348132Y-2975762D01*
X361492Y-2973527D01*
X374396Y-2969514D01*
X386689Y-2963824D01*
X398068Y-2956560D01*
X408432Y-2947822D01*
X417474Y-2937764D01*
X425145Y-2926638D01*
X431241Y-2914548D01*
X435660Y-2901746D01*
X438404Y-2888488D01*
X439267Y-2875026D01*
X438404Y-2861513D01*
X435660Y-2848254D01*
X431241Y-2835452D01*
X425145Y-2823362D01*
X417474Y-2812237D01*
X408432Y-2802178D01*
X398068Y-2793441D01*
X386689Y-2786176D01*
X374396Y-2780487D01*
X361492Y-2776474D01*
X348132Y-2774238D01*
X334619Y-2773781D01*
X321157Y-2775102D01*
X308000Y-2778252D01*
X295351Y-2783128D01*
X285038Y-2788767D01*
X281025Y-2789986D01*
X276910Y-2789478D01*
X273304Y-2787345D01*
X270865Y-2783941D01*
X270002Y-2779877D01*
X270002Y-2716123D01*
X270865Y-2712059D01*
X273304Y-2708656D01*
X276910Y-2706522D01*
X281025Y-2706014D01*
X285038Y-2707233D01*
X295351Y-2712872D01*
X308000Y-2717749D01*
X321157Y-2720898D01*
X334619Y-2722219D01*
X348132Y-2721762D01*
X361492Y-2719527D01*
X374396Y-2715514D01*
X386689Y-2709824D01*
X398068Y-2702560D01*
X408432Y-2693822D01*
X417474Y-2683764D01*
X425145Y-2672638D01*
X431241Y-2660548D01*
X435660Y-2647746D01*
X438404Y-2634488D01*
X439267Y-2621026D01*
X438404Y-2607513D01*
X435660Y-2594254D01*
X431241Y-2581452D01*
X425145Y-2569362D01*
X417474Y-2558237D01*
X408432Y-2548178D01*
X398068Y-2539441D01*
X386689Y-2532176D01*
X374396Y-2526487D01*
X361492Y-2522474D01*
X348132Y-2520238D01*
X334619Y-2519781D01*
X321157Y-2521102D01*
X308000Y-2524252D01*
X295351Y-2529128D01*
X285038Y-2534767D01*
X281025Y-2535986D01*
X276910Y-2535478D01*
X273304Y-2533345D01*
X270865Y-2529941D01*
X270002Y-2525877D01*
X270002Y-2462123D01*
X270865Y-2458059D01*
X273304Y-2454656D01*
X276910Y-2452522D01*
X281025Y-2452014D01*
X285038Y-2453233D01*
X295351Y-2458872D01*
X308000Y-2463749D01*
X321157Y-2466898D01*
X334619Y-2468219D01*
X348132Y-2467762D01*
X361492Y-2465527D01*
X374396Y-2461514D01*
X386689Y-2455824D01*
X398068Y-2448560D01*
X408432Y-2439822D01*
X417474Y-2429764D01*
X425145Y-2418638D01*
X431241Y-2406548D01*
X435660Y-2393746D01*
X438404Y-2380488D01*
X439267Y-2367026D01*
X438404Y-2353513D01*
X435660Y-2340254D01*
X431241Y-2327452D01*
X425145Y-2315362D01*
X417474Y-2304237D01*
X408432Y-2294178D01*
X398068Y-2285441D01*
X386689Y-2278176D01*
X374396Y-2272487D01*
X361492Y-2268474D01*
X348132Y-2266238D01*
X334619Y-2265781D01*
X321157Y-2267102D01*
X308000Y-2270252D01*
X295351Y-2275128D01*
X285038Y-2280767D01*
X281025Y-2281986D01*
X276910Y-2281478D01*
X273304Y-2279345D01*
X270865Y-2275941D01*
X270002Y-2271877D01*
X270002Y-2208123D01*
X270865Y-2204059D01*
X273304Y-2200656D01*
X276910Y-2198522D01*
X281025Y-2198014D01*
X285038Y-2199233D01*
X295351Y-2204872D01*
X308000Y-2209749D01*
X321157Y-2212898D01*
X334619Y-2214219D01*
X348132Y-2213762D01*
X361492Y-2211527D01*
X374396Y-2207514D01*
X386689Y-2201824D01*
X398068Y-2194560D01*
X408432Y-2185822D01*
X417474Y-2175764D01*
X425145Y-2164638D01*
X431241Y-2152548D01*
X435660Y-2139746D01*
X438404Y-2126488D01*
X439267Y-2113026D01*
X438404Y-2099513D01*
X435660Y-2086254D01*
X431241Y-2073452D01*
X425145Y-2061362D01*
X417474Y-2050237D01*
X408432Y-2040178D01*
X398068Y-2031441D01*
X386689Y-2024176D01*
X374396Y-2018487D01*
X361492Y-2014474D01*
X348132Y-2012238D01*
X334619Y-2011781D01*
X321157Y-2013102D01*
X308000Y-2016252D01*
X295351Y-2021128D01*
X285038Y-2026767D01*
X281025Y-2027986D01*
X276910Y-2027478D01*
X273304Y-2025345D01*
X270865Y-2021941D01*
X270002Y-2017877D01*
X270002Y-1954123D01*
X270865Y-1950059D01*
X273304Y-1946656D01*
X276910Y-1944522D01*
X281025Y-1944014D01*
X285038Y-1945233D01*
X295351Y-1950872D01*
X308000Y-1955749D01*
X321157Y-1958898D01*
X334619Y-1960219D01*
X348132Y-1959762D01*
X361492Y-1957527D01*
X374396Y-1953514D01*
X386689Y-1947824D01*
X398068Y-1940560D01*
X408432Y-1931822D01*
X417474Y-1921764D01*
X425145Y-1910638D01*
X431241Y-1898548D01*
X435660Y-1885746D01*
X438404Y-1872488D01*
X439267Y-1859025D01*
X438404Y-1845513D01*
X435660Y-1832254D01*
X433578Y-1826158D01*
X433019Y-1822399D01*
X433832Y-1818741D01*
X435965Y-1815642D01*
X571703Y-1679905D01*
X575005Y-1677670D01*
X578916Y-1676907D01*
X1153566Y-1676907D01*
X1157884Y-1677873D01*
X1161338Y-1680514D01*
X1163370Y-1684375D01*
X1163624Y-1688744D01*
X1162202Y-1697075D01*
X1162202Y-1706524D01*
X1163777Y-1715871D01*
X1166876Y-1724863D01*
X1171346Y-1733194D01*
X1177188Y-1740662D01*
X1184148Y-1747062D01*
X1192072Y-1752244D01*
X1200607Y-1756003D01*
X1203807Y-1758238D01*
X1205941Y-1761489D01*
X1206703Y-1765300D01*
X1205941Y-1769110D01*
X1203807Y-1772361D01*
X1200607Y-1774596D01*
X1192072Y-1778355D01*
X1184148Y-1783537D01*
X1177188Y-1789938D01*
X1171346Y-1797405D01*
X1166876Y-1805736D01*
X1163777Y-1814728D01*
X1162202Y-1824075D01*
X1162202Y-1833524D01*
X1163777Y-1842871D01*
X1166876Y-1851863D01*
X1171346Y-1860194D01*
X1177188Y-1867662D01*
X1184148Y-1874062D01*
X1192072Y-1879244D01*
X1200759Y-1883054D01*
X1209954Y-1885391D01*
X1219809Y-1886204D01*
X1232408Y-1886204D01*
X1236268Y-1886966D01*
X1239570Y-1889201D01*
X1241755Y-1892503D01*
X1242568Y-1896364D01*
X1242568Y-2634437D01*
X1241755Y-2638348D01*
X1239570Y-2641650D01*
X1207160Y-2674061D01*
X1204061Y-2676194D01*
X1200353Y-2677007D01*
X1196644Y-2676448D01*
X1193342Y-2674569D01*
X1191006Y-2671622D01*
X1189888Y-2668016D01*
X1189278Y-2662834D01*
X1187399Y-2657398D01*
X1184300Y-2652471D01*
X1180236Y-2648407D01*
X1175308Y-2645308D01*
X1169873Y-2643428D01*
X1163523Y-2642717D01*
X904748Y-2642717D01*
X900887Y-2641904D01*
X897585Y-2639720D01*
X895350Y-2636418D01*
X894587Y-2632557D01*
X894587Y-2389174D01*
X895350Y-2385263D01*
X897585Y-2382012D01*
X900887Y-2379776D01*
X904748Y-2379014D01*
X1163523Y-2379014D01*
X1169822Y-2378303D01*
X1175308Y-2376373D01*
X1180185Y-2373325D01*
X1184300Y-2369210D01*
X1187399Y-2364333D01*
X1189278Y-2358847D01*
X1189990Y-2352548D01*
X1189990Y-2218690D01*
X1189278Y-2212340D01*
X1187399Y-2206904D01*
X1184300Y-2201976D01*
X1180185Y-2197912D01*
X1175308Y-2194814D01*
X1169822Y-2192883D01*
X1163523Y-2192172D01*
X884682Y-2192172D01*
X878332Y-2192883D01*
X872896Y-2194814D01*
X867968Y-2197912D01*
X863904Y-2201976D01*
X860806Y-2206904D01*
X858875Y-2212340D01*
X858164Y-2218690D01*
X858164Y-2237638D01*
X857503Y-2241296D01*
X855573Y-2244445D01*
X852576Y-2246731D01*
X841248Y-2249982D01*
X834542Y-2253538D01*
X828700Y-2258364D01*
X823925Y-2264206D01*
X820369Y-2270861D01*
X818184Y-2278075D01*
X817372Y-2286101D01*
X817372Y-3424377D01*
X816610Y-3428288D01*
X814425Y-3431590D01*
X603656Y-3642309D01*
X600659Y-3644392D01*
X597154Y-3645255D01*
X593547Y-3644849D01*
X590346Y-3643223D01*
X587857Y-3640531D01*
X584250Y-3634790D01*
X580186Y-3630676D01*
X575259Y-3627628D01*
X569823Y-3625697D01*
X563473Y-3624986D01*
X469595Y-3624986D01*
X463296Y-3625697D01*
X457860Y-3627628D01*
X452932Y-3630676D01*
X448868Y-3634790D01*
X445770Y-3639667D01*
X443839Y-3645154D01*
X443128Y-3651453D01*
X443128Y-3765346D01*
X443839Y-3771646D01*
X445770Y-3777132D01*
X448868Y-3782009D01*
X452932Y-3786124D01*
X457860Y-3789172D01*
X463296Y-3791102D01*
X469595Y-3791813D01*
X563473Y-3791813D01*
X569823Y-3791102D01*
X575259Y-3789172D01*
X580186Y-3786124D01*
X584250Y-3782009D01*
X587857Y-3776268D01*
X590296Y-3773576D01*
X593547Y-3771950D01*
X597154Y-3771544D01*
X600659Y-3772408D01*
X603656Y-3774490D01*
X761898Y-3932732D01*
X768096Y-3937812D01*
X774801Y-3941368D01*
X782015Y-3943604D01*
G37*
G36*
X2568854Y-3844290D02*
G01*
X2584450Y-3844290D01*
X2590749Y-3843578D01*
X2596235Y-3841699D01*
X2601112Y-3838600D01*
X2605227Y-3834485D01*
X2608275Y-3829608D01*
X2610205Y-3824122D01*
X2610916Y-3817823D01*
X2610916Y-3804716D01*
X2568854Y-3804716D01*
G37*
G36*
X2495550Y-3844290D02*
G01*
X2511145Y-3844290D01*
X2511145Y-3804716D01*
X2469083Y-3804716D01*
X2469083Y-3817823D01*
X2469794Y-3824122D01*
X2471724Y-3829608D01*
X2474772Y-3834485D01*
X2478887Y-3838600D01*
X2483764Y-3841699D01*
X2489250Y-3843578D01*
G37*
G36*
X2241550Y-3844290D02*
G01*
X2257145Y-3844290D01*
X2257145Y-3804716D01*
X2215083Y-3804716D01*
X2215083Y-3817823D01*
X2215794Y-3824122D01*
X2217724Y-3829608D01*
X2220772Y-3834485D01*
X2224887Y-3838600D01*
X2229764Y-3841699D01*
X2235250Y-3843578D01*
G37*
G36*
X2314854Y-3844290D02*
G01*
X2330450Y-3844290D01*
X2336749Y-3843578D01*
X2342235Y-3841699D01*
X2347112Y-3838600D01*
X2351227Y-3834485D01*
X2354275Y-3829608D01*
X2356205Y-3824122D01*
X2356916Y-3817823D01*
X2356916Y-3804716D01*
X2314854Y-3804716D01*
G37*
G36*
X1901291Y-3167837D02*
G01*
X1916074Y-3167380D01*
X1930654Y-3165094D01*
X1944827Y-3161030D01*
X1958441Y-3155289D01*
X1971192Y-3147923D01*
X1982978Y-3139033D01*
X1993595Y-3128772D01*
X2002840Y-3117240D01*
X2010613Y-3104692D01*
X2016760Y-3091281D01*
X2021230Y-3077260D01*
X2023973Y-3062732D01*
X2024888Y-3048000D01*
X2023973Y-3033268D01*
X2021230Y-3018739D01*
X2016760Y-3004718D01*
X2010613Y-2991307D01*
X2002840Y-2978759D01*
X1993595Y-2967228D01*
X1982978Y-2956966D01*
X1971192Y-2948076D01*
X1958441Y-2940710D01*
X1944827Y-2934970D01*
X1930654Y-2930906D01*
X1916074Y-2928620D01*
X1901291Y-2928213D01*
X1886610Y-2929534D01*
X1872183Y-2932684D01*
X1858264Y-2937611D01*
X1845056Y-2944215D01*
X1832762Y-2952343D01*
X1821535Y-2961944D01*
X1811629Y-2972866D01*
X1803095Y-2984906D01*
X1796084Y-2997911D01*
X1790750Y-3011678D01*
X1787194Y-3025952D01*
X1785366Y-3040634D01*
X1785366Y-3055366D01*
X1787194Y-3070047D01*
X1790750Y-3084322D01*
X1796084Y-3098088D01*
X1803095Y-3111093D01*
X1811629Y-3123133D01*
X1821535Y-3134055D01*
X1832762Y-3143656D01*
X1845056Y-3151784D01*
X1858264Y-3158388D01*
X1872183Y-3163316D01*
X1886610Y-3166465D01*
G37*
G36*
X2579928Y-2966110D02*
G01*
X2579928Y-2919069D01*
X2532888Y-2919069D01*
X2533599Y-2920695D01*
X2540508Y-2932328D01*
X2548890Y-2942945D01*
X2558592Y-2952343D01*
X2569514Y-2960370D01*
G37*
G36*
X2668066Y-2965958D02*
G01*
X2672689Y-2963824D01*
X2684068Y-2956560D01*
X2694432Y-2947822D01*
X2703474Y-2937764D01*
X2711145Y-2926638D01*
X2714955Y-2919069D01*
X2668066Y-2919069D01*
G37*
G36*
X1887931Y-2842260D02*
G01*
X2043531Y-2842260D01*
X2049881Y-2841548D01*
X2055317Y-2839618D01*
X2060193Y-2836519D01*
X2064308Y-2832455D01*
X2067407Y-2827528D01*
X2069287Y-2822092D01*
X2069998Y-2815793D01*
X2069998Y-2672689D01*
X1887931Y-2672689D01*
G37*
G36*
X2668066Y-2830931D02*
G01*
X2714955Y-2830931D01*
X2711145Y-2823362D01*
X2703474Y-2812237D01*
X2694432Y-2802178D01*
X2684068Y-2793441D01*
X2672689Y-2786176D01*
X2668066Y-2784043D01*
G37*
G36*
X2532888Y-2830931D02*
G01*
X2579928Y-2830931D01*
X2579928Y-2783890D01*
X2569514Y-2789631D01*
X2558592Y-2797657D01*
X2548890Y-2807055D01*
X2540508Y-2817672D01*
X2533599Y-2829306D01*
G37*
G36*
X2620619Y-2722219D02*
G01*
X2634132Y-2721762D01*
X2647492Y-2719527D01*
X2660396Y-2715514D01*
X2672689Y-2709824D01*
X2684068Y-2702560D01*
X2694432Y-2693822D01*
X2703474Y-2683764D01*
X2711145Y-2672638D01*
X2717241Y-2660548D01*
X2721660Y-2647746D01*
X2724404Y-2634488D01*
X2725267Y-2621026D01*
X2724404Y-2607513D01*
X2721660Y-2594254D01*
X2717241Y-2581452D01*
X2711145Y-2569362D01*
X2703474Y-2558237D01*
X2694432Y-2548178D01*
X2684068Y-2539441D01*
X2672689Y-2532176D01*
X2660396Y-2526487D01*
X2647492Y-2522474D01*
X2634132Y-2520238D01*
X2620619Y-2519781D01*
X2607157Y-2521102D01*
X2594000Y-2524252D01*
X2581351Y-2529128D01*
X2569514Y-2535631D01*
X2558592Y-2543657D01*
X2548890Y-2553055D01*
X2540508Y-2563672D01*
X2533599Y-2575306D01*
X2528316Y-2587752D01*
X2524760Y-2600807D01*
X2522931Y-2614218D01*
X2522931Y-2627782D01*
X2524760Y-2641193D01*
X2528316Y-2654249D01*
X2533599Y-2666695D01*
X2540508Y-2678328D01*
X2548890Y-2688945D01*
X2558592Y-2698343D01*
X2569514Y-2706370D01*
X2581351Y-2712872D01*
X2594000Y-2717749D01*
X2607157Y-2720898D01*
G37*
G36*
X2620619Y-2468219D02*
G01*
X2634132Y-2467762D01*
X2647492Y-2465527D01*
X2660396Y-2461514D01*
X2672689Y-2455824D01*
X2684068Y-2448560D01*
X2694432Y-2439822D01*
X2703474Y-2429764D01*
X2711145Y-2418638D01*
X2717241Y-2406548D01*
X2721660Y-2393746D01*
X2724404Y-2380488D01*
X2725267Y-2367026D01*
X2724404Y-2353513D01*
X2721660Y-2340254D01*
X2717241Y-2327452D01*
X2711145Y-2315362D01*
X2703474Y-2304237D01*
X2694432Y-2294178D01*
X2684068Y-2285441D01*
X2672689Y-2278176D01*
X2660396Y-2272487D01*
X2647492Y-2268474D01*
X2634132Y-2266238D01*
X2620619Y-2265781D01*
X2607157Y-2267102D01*
X2594000Y-2270252D01*
X2581351Y-2275128D01*
X2569514Y-2281631D01*
X2558592Y-2289657D01*
X2548890Y-2299055D01*
X2540508Y-2309672D01*
X2533599Y-2321306D01*
X2528316Y-2333752D01*
X2524760Y-2346807D01*
X2522931Y-2360218D01*
X2522931Y-2373782D01*
X2524760Y-2387193D01*
X2528316Y-2400249D01*
X2533599Y-2412695D01*
X2540508Y-2424328D01*
X2548890Y-2434945D01*
X2558592Y-2444343D01*
X2569514Y-2452370D01*
X2581351Y-2458872D01*
X2594000Y-2463749D01*
X2607157Y-2466898D01*
G37*
G36*
X1887931Y-2360015D02*
G01*
X2069998Y-2360015D01*
X2069998Y-2216912D01*
X2069287Y-2210612D01*
X2067407Y-2205126D01*
X2064308Y-2200249D01*
X2060193Y-2196134D01*
X2055317Y-2193036D01*
X2049881Y-2191156D01*
X2043531Y-2190445D01*
X1887931Y-2190445D01*
G37*
G36*
X2620619Y-2214219D02*
G01*
X2634132Y-2213762D01*
X2647492Y-2211527D01*
X2660396Y-2207514D01*
X2672689Y-2201824D01*
X2684068Y-2194560D01*
X2694432Y-2185822D01*
X2703474Y-2175764D01*
X2711145Y-2164638D01*
X2717241Y-2152548D01*
X2721660Y-2139746D01*
X2724404Y-2126488D01*
X2725267Y-2113026D01*
X2724404Y-2099513D01*
X2721660Y-2086254D01*
X2717241Y-2073452D01*
X2711145Y-2061362D01*
X2703474Y-2050237D01*
X2694432Y-2040178D01*
X2684068Y-2031441D01*
X2672689Y-2024176D01*
X2660396Y-2018487D01*
X2647492Y-2014474D01*
X2634132Y-2012238D01*
X2620619Y-2011781D01*
X2607157Y-2013102D01*
X2594000Y-2016252D01*
X2581351Y-2021128D01*
X2569514Y-2027631D01*
X2558592Y-2035657D01*
X2548890Y-2045055D01*
X2540508Y-2055672D01*
X2533599Y-2067306D01*
X2528316Y-2079752D01*
X2524760Y-2092807D01*
X2522931Y-2106218D01*
X2522931Y-2119782D01*
X2524760Y-2133193D01*
X2528316Y-2146249D01*
X2533599Y-2158695D01*
X2540508Y-2170328D01*
X2548890Y-2180945D01*
X2558592Y-2190343D01*
X2569514Y-2198370D01*
X2581351Y-2204872D01*
X2594000Y-2209749D01*
X2607157Y-2212898D01*
G37*
G36*
X334619Y-1452219D02*
G01*
X348132Y-1451762D01*
X361492Y-1449527D01*
X374396Y-1445514D01*
X386689Y-1439824D01*
X398068Y-1432560D01*
X408432Y-1423822D01*
X417474Y-1413764D01*
X425145Y-1402638D01*
X431241Y-1390548D01*
X435660Y-1377746D01*
X438404Y-1364488D01*
X439267Y-1351026D01*
X438404Y-1337513D01*
X435660Y-1324254D01*
X431241Y-1311452D01*
X425145Y-1299362D01*
X417474Y-1288237D01*
X408432Y-1278178D01*
X398068Y-1269441D01*
X386689Y-1262176D01*
X374396Y-1256487D01*
X361492Y-1252474D01*
X348132Y-1250238D01*
X334619Y-1249781D01*
X321157Y-1251102D01*
X308000Y-1254252D01*
X295351Y-1259128D01*
X283514Y-1265631D01*
X272592Y-1273657D01*
X262890Y-1283055D01*
X254508Y-1293672D01*
X247599Y-1305306D01*
X242316Y-1317752D01*
X238760Y-1330807D01*
X236931Y-1344218D01*
X236931Y-1357782D01*
X238760Y-1371193D01*
X242316Y-1384249D01*
X247599Y-1396695D01*
X254508Y-1408328D01*
X262890Y-1418945D01*
X272592Y-1428343D01*
X283514Y-1436370D01*
X295351Y-1442872D01*
X308000Y-1447749D01*
X321157Y-1450898D01*
G37*
G36*
X1334109Y-1425702D02*
G01*
X1395780Y-1425702D01*
X1395425Y-1424736D01*
X1390954Y-1416405D01*
X1385112Y-1408938D01*
X1378153Y-1402537D01*
X1370228Y-1397355D01*
X1361541Y-1393545D01*
X1352346Y-1391208D01*
X1342491Y-1390396D01*
X1334109Y-1390396D01*
G37*
G36*
X1166520Y-1425702D02*
G01*
X1228191Y-1425702D01*
X1228191Y-1390396D01*
X1219809Y-1390396D01*
X1209954Y-1391208D01*
X1200759Y-1393545D01*
X1192072Y-1397355D01*
X1184148Y-1402537D01*
X1177188Y-1408938D01*
X1171346Y-1416405D01*
X1166876Y-1424736D01*
G37*
G36*
X635558Y-712825D02*
G01*
X673608Y-712825D01*
X679958Y-712114D01*
X685393Y-710184D01*
X690321Y-707085D01*
X694385Y-703021D01*
X697484Y-698093D01*
X699414Y-692658D01*
X700125Y-686308D01*
X700125Y-648258D01*
X635558Y-648258D01*
G37*
G36*
X494792Y-712825D02*
G01*
X532841Y-712825D01*
X532841Y-648258D01*
X468274Y-648258D01*
X468274Y-686308D01*
X468985Y-692658D01*
X470916Y-698093D01*
X474014Y-703021D01*
X478078Y-707085D01*
X483006Y-710184D01*
X488442Y-712114D01*
G37*
G36*
X1338935Y-712571D02*
G01*
X1353464Y-712571D01*
X1367891Y-710742D01*
X1382014Y-707136D01*
X1395526Y-701751D01*
X1408277Y-694740D01*
X1420063Y-686206D01*
X1430680Y-676249D01*
X1439976Y-665022D01*
X1447749Y-652729D01*
X1453946Y-639572D01*
X1458468Y-625703D01*
X1461160Y-611428D01*
X1462074Y-596900D01*
X1461160Y-582371D01*
X1458468Y-568096D01*
X1453946Y-554228D01*
X1447749Y-541070D01*
X1439976Y-528777D01*
X1430680Y-517550D01*
X1420063Y-507593D01*
X1408277Y-499059D01*
X1395526Y-492048D01*
X1382014Y-486664D01*
X1367891Y-483057D01*
X1353464Y-481228D01*
X1338935Y-481228D01*
X1324508Y-483057D01*
X1310386Y-486664D01*
X1296873Y-492048D01*
X1284122Y-499059D01*
X1272336Y-507593D01*
X1261719Y-517550D01*
X1252423Y-528777D01*
X1244650Y-541070D01*
X1238453Y-554228D01*
X1233932Y-568096D01*
X1231239Y-582371D01*
X1230325Y-596900D01*
X1231239Y-611428D01*
X1233932Y-625703D01*
X1238453Y-639572D01*
X1244650Y-652729D01*
X1252423Y-665022D01*
X1261719Y-676249D01*
X1272336Y-686206D01*
X1284122Y-694740D01*
X1296873Y-701751D01*
X1310386Y-707136D01*
X1324508Y-710742D01*
G37*
G36*
X1084935Y-712571D02*
G01*
X1099464Y-712571D01*
X1113891Y-710742D01*
X1128014Y-707136D01*
X1141526Y-701751D01*
X1154277Y-694740D01*
X1166063Y-686206D01*
X1176680Y-676249D01*
X1185976Y-665022D01*
X1193749Y-652729D01*
X1199946Y-639572D01*
X1204468Y-625703D01*
X1207160Y-611428D01*
X1208074Y-596900D01*
X1207160Y-582371D01*
X1204468Y-568096D01*
X1199946Y-554228D01*
X1193749Y-541070D01*
X1185976Y-528777D01*
X1176680Y-517550D01*
X1166063Y-507593D01*
X1154277Y-499059D01*
X1141526Y-492048D01*
X1128014Y-486664D01*
X1113891Y-483057D01*
X1099464Y-481228D01*
X1084935Y-481228D01*
X1070508Y-483057D01*
X1056386Y-486664D01*
X1042873Y-492048D01*
X1030122Y-499059D01*
X1018336Y-507593D01*
X1007719Y-517550D01*
X998423Y-528777D01*
X990650Y-541070D01*
X984453Y-554228D01*
X979932Y-568096D01*
X977239Y-582371D01*
X976325Y-596900D01*
X977239Y-611428D01*
X979932Y-625703D01*
X984453Y-639572D01*
X990650Y-652729D01*
X998423Y-665022D01*
X1007719Y-676249D01*
X1018336Y-686206D01*
X1030122Y-694740D01*
X1042873Y-701751D01*
X1056386Y-707136D01*
X1070508Y-710742D01*
G37*
G36*
X1592935Y-712571D02*
G01*
X1607464Y-712571D01*
X1621891Y-710742D01*
X1636014Y-707136D01*
X1649526Y-701751D01*
X1662277Y-694740D01*
X1674063Y-686206D01*
X1684680Y-676249D01*
X1693976Y-665022D01*
X1701749Y-652729D01*
X1707946Y-639572D01*
X1712468Y-625703D01*
X1715160Y-611428D01*
X1716074Y-596900D01*
X1715160Y-582371D01*
X1712468Y-568096D01*
X1707946Y-554228D01*
X1701749Y-541070D01*
X1693976Y-528777D01*
X1684680Y-517550D01*
X1674063Y-507593D01*
X1662277Y-499059D01*
X1649526Y-492048D01*
X1636014Y-486664D01*
X1621891Y-483057D01*
X1607464Y-481228D01*
X1592935Y-481228D01*
X1578508Y-483057D01*
X1564386Y-486664D01*
X1550873Y-492048D01*
X1538122Y-499059D01*
X1526336Y-507593D01*
X1515719Y-517550D01*
X1506423Y-528777D01*
X1498650Y-541070D01*
X1492453Y-554228D01*
X1487932Y-568096D01*
X1485239Y-582371D01*
X1484325Y-596900D01*
X1485239Y-611428D01*
X1487932Y-625703D01*
X1492453Y-639572D01*
X1498650Y-652729D01*
X1506423Y-665022D01*
X1515719Y-676249D01*
X1526336Y-686206D01*
X1538122Y-694740D01*
X1550873Y-701751D01*
X1564386Y-707136D01*
X1578508Y-710742D01*
G37*
G36*
X1846935Y-712571D02*
G01*
X1861464Y-712571D01*
X1875891Y-710742D01*
X1890014Y-707136D01*
X1903526Y-701751D01*
X1916277Y-694740D01*
X1928063Y-686206D01*
X1938680Y-676249D01*
X1947976Y-665022D01*
X1955749Y-652729D01*
X1961946Y-639572D01*
X1966468Y-625703D01*
X1969160Y-611428D01*
X1970074Y-596900D01*
X1969160Y-582371D01*
X1966468Y-568096D01*
X1961946Y-554228D01*
X1955749Y-541070D01*
X1947976Y-528777D01*
X1938680Y-517550D01*
X1928063Y-507593D01*
X1916277Y-499059D01*
X1903526Y-492048D01*
X1890014Y-486664D01*
X1875891Y-483057D01*
X1861464Y-481228D01*
X1846935Y-481228D01*
X1832508Y-483057D01*
X1818386Y-486664D01*
X1804873Y-492048D01*
X1792122Y-499059D01*
X1780336Y-507593D01*
X1769719Y-517550D01*
X1760423Y-528777D01*
X1752650Y-541070D01*
X1746453Y-554228D01*
X1741932Y-568096D01*
X1739239Y-582371D01*
X1738325Y-596900D01*
X1739239Y-611428D01*
X1741932Y-625703D01*
X1746453Y-639572D01*
X1752650Y-652729D01*
X1760423Y-665022D01*
X1769719Y-676249D01*
X1780336Y-686206D01*
X1792122Y-694740D01*
X1804873Y-701751D01*
X1818386Y-707136D01*
X1832508Y-710742D01*
G37*
G36*
X2100935Y-712571D02*
G01*
X2115464Y-712571D01*
X2129891Y-710742D01*
X2144014Y-707136D01*
X2157526Y-701751D01*
X2170277Y-694740D01*
X2182063Y-686206D01*
X2192680Y-676249D01*
X2201976Y-665022D01*
X2209749Y-652729D01*
X2215946Y-639572D01*
X2220468Y-625703D01*
X2223160Y-611428D01*
X2224074Y-596900D01*
X2223160Y-582371D01*
X2220468Y-568096D01*
X2215946Y-554228D01*
X2209749Y-541070D01*
X2201976Y-528777D01*
X2192680Y-517550D01*
X2182063Y-507593D01*
X2170277Y-499059D01*
X2157526Y-492048D01*
X2144014Y-486664D01*
X2129891Y-483057D01*
X2115464Y-481228D01*
X2100935Y-481228D01*
X2086508Y-483057D01*
X2072386Y-486664D01*
X2058873Y-492048D01*
X2046122Y-499059D01*
X2034336Y-507593D01*
X2023719Y-517550D01*
X2014423Y-528777D01*
X2006650Y-541070D01*
X2000453Y-554228D01*
X1995932Y-568096D01*
X1993239Y-582371D01*
X1992325Y-596900D01*
X1993239Y-611428D01*
X1995932Y-625703D01*
X2000453Y-639572D01*
X2006650Y-652729D01*
X2014423Y-665022D01*
X2023719Y-676249D01*
X2034336Y-686206D01*
X2046122Y-694740D01*
X2058873Y-701751D01*
X2072386Y-707136D01*
X2086508Y-710742D01*
G37*
G36*
X2354935Y-712571D02*
G01*
X2369464Y-712571D01*
X2383891Y-710742D01*
X2398014Y-707136D01*
X2411526Y-701751D01*
X2424277Y-694740D01*
X2436063Y-686206D01*
X2446680Y-676249D01*
X2455976Y-665022D01*
X2463749Y-652729D01*
X2469946Y-639572D01*
X2474468Y-625703D01*
X2477160Y-611428D01*
X2478074Y-596900D01*
X2477160Y-582371D01*
X2474468Y-568096D01*
X2469946Y-554228D01*
X2463749Y-541070D01*
X2455976Y-528777D01*
X2446680Y-517550D01*
X2436063Y-507593D01*
X2424277Y-499059D01*
X2411526Y-492048D01*
X2398014Y-486664D01*
X2383891Y-483057D01*
X2369464Y-481228D01*
X2354935Y-481228D01*
X2340508Y-483057D01*
X2326386Y-486664D01*
X2312873Y-492048D01*
X2300122Y-499059D01*
X2288336Y-507593D01*
X2277719Y-517550D01*
X2268423Y-528777D01*
X2260650Y-541070D01*
X2254453Y-554228D01*
X2249932Y-568096D01*
X2247239Y-582371D01*
X2246325Y-596900D01*
X2247239Y-611428D01*
X2249932Y-625703D01*
X2254453Y-639572D01*
X2260650Y-652729D01*
X2268423Y-665022D01*
X2277719Y-676249D01*
X2288336Y-686206D01*
X2300122Y-694740D01*
X2312873Y-701751D01*
X2326386Y-707136D01*
X2340508Y-710742D01*
G37*
G36*
X635558Y-545541D02*
G01*
X700125Y-545541D01*
X700125Y-507492D01*
X699414Y-501142D01*
X697484Y-495706D01*
X694385Y-490778D01*
X690321Y-486714D01*
X685393Y-483616D01*
X679958Y-481685D01*
X673608Y-480974D01*
X635558Y-480974D01*
G37*
G36*
X468274Y-545541D02*
G01*
X532841Y-545541D01*
X532841Y-480974D01*
X494792Y-480974D01*
X488442Y-481685D01*
X483006Y-483616D01*
X478078Y-486714D01*
X474014Y-490778D01*
X470916Y-495706D01*
X468985Y-501142D01*
X468274Y-507492D01*
G37*

%LPD*%
G36*
X1558696Y-3867150D02*
G01*
X1554784Y-3866387D01*
X1551482Y-3864152D01*
X1549298Y-3860901D01*
X1548536Y-3856990D01*
X1549298Y-3853129D01*
X1551482Y-3849827D01*
X1596288Y-3805021D01*
X1599539Y-3802837D01*
X1603349Y-3802024D01*
X1607210Y-3802735D01*
X1615186Y-3805936D01*
X1629308Y-3809542D01*
X1643735Y-3811371D01*
X1658264Y-3811371D01*
X1672691Y-3809542D01*
X1686814Y-3805936D01*
X1700326Y-3800551D01*
X1713077Y-3793540D01*
X1724863Y-3785006D01*
X1735480Y-3775049D01*
X1744776Y-3763822D01*
X1752549Y-3751529D01*
X1758746Y-3738372D01*
X1763268Y-3724503D01*
X1765960Y-3710228D01*
X1766874Y-3695700D01*
X1765960Y-3681171D01*
X1763268Y-3666896D01*
X1758746Y-3653028D01*
X1752549Y-3639870D01*
X1744776Y-3627577D01*
X1735023Y-3615842D01*
X1733194Y-3612489D01*
X1732686Y-3608730D01*
X1733651Y-3605022D01*
X1735886Y-3601923D01*
X1739087Y-3599891D01*
X1742846Y-3599179D01*
X1778914Y-3599179D01*
X1782825Y-3599942D01*
X1786128Y-3602177D01*
X1788312Y-3605428D01*
X1789074Y-3609340D01*
X1789074Y-3644341D01*
X1853641Y-3644341D01*
X1853641Y-3609340D01*
X1854403Y-3605428D01*
X1856638Y-3602177D01*
X1859940Y-3599942D01*
X1863801Y-3599179D01*
X1946198Y-3599179D01*
X1950059Y-3599942D01*
X1953361Y-3602177D01*
X1955596Y-3605428D01*
X1956358Y-3609340D01*
X1956358Y-3644341D01*
X2020925Y-3644341D01*
X2020925Y-3609340D01*
X2021687Y-3605428D01*
X2023872Y-3602177D01*
X2027174Y-3599942D01*
X2031085Y-3599179D01*
X2204923Y-3599179D01*
X2208834Y-3599942D01*
X2212136Y-3602177D01*
X2214321Y-3605428D01*
X2215083Y-3609340D01*
X2215083Y-3657752D01*
X2214321Y-3661664D01*
X2212136Y-3664915D01*
X2208834Y-3667150D01*
X2204923Y-3667912D01*
X2170328Y-3667912D01*
X2162352Y-3668725D01*
X2155088Y-3670909D01*
X2148433Y-3674465D01*
X2142185Y-3679596D01*
X2038248Y-3783533D01*
X2034946Y-3785717D01*
X2031085Y-3786479D01*
X2027174Y-3785717D01*
X2023872Y-3783533D01*
X2021687Y-3780231D01*
X2020925Y-3776319D01*
X2020925Y-3747058D01*
X1956358Y-3747058D01*
X1956358Y-3811625D01*
X1985619Y-3811625D01*
X1989531Y-3812387D01*
X1992833Y-3814572D01*
X1995017Y-3817874D01*
X1995779Y-3821785D01*
X1995017Y-3825646D01*
X1992833Y-3828948D01*
X1957578Y-3864152D01*
X1954326Y-3866387D01*
X1950415Y-3867150D01*
G37*

%LPC*%
G36*
X1815592Y-3811625D02*
G01*
X1853641Y-3811625D01*
X1853641Y-3747058D01*
X1789074Y-3747058D01*
X1789074Y-3785108D01*
X1789785Y-3791458D01*
X1791716Y-3796893D01*
X1794814Y-3801821D01*
X1798878Y-3805885D01*
X1803806Y-3808984D01*
X1809242Y-3810914D01*
G37*

%LPD*%
D10*
X2286000Y-3560571D02*
G01*
X1601215Y-3560571D01*
X1524000Y-3637534D01*
X1524000Y-3760215D01*
X1460500Y-3823715D01*
X1334515Y-3823715D01*
X1278381Y-3767581D01*
X1278381Y-2829813D01*
X1192276Y-2743707D01*
X1817623Y-1828800D02*
G01*
X2311654Y-1828800D01*
X2411222Y-1729231D01*
X2677668Y-1729231D01*
X2755900Y-1651000D01*
X2755900Y-1482852D01*
X2624074Y-1351026D01*
X338073Y-3129026D02*
G01*
X231394Y-3022345D01*
X231394Y-1800605D01*
X292100Y-1739900D01*
X381000Y-1739900D01*
X838200Y-1282700D01*
X838200Y-596900D01*
X1817657Y-1447802D02*
G01*
X2466804Y-1447802D01*
X2624005Y-1605003D01*
X338005Y-1859003D02*
G01*
X558706Y-1638302D01*
X1390073Y-1638302D01*
X1411206Y-1659435D01*
X1817657Y-1659435D01*
X1817657Y-1574802D02*
G01*
X1817657Y-1659435D01*
X1817657Y-1659435D02*
G01*
X1817657Y-1701802D01*
X1281158Y-1701802D02*
G01*
X1305491Y-1701802D01*
X1408818Y-1805129D01*
X1408818Y-1992048D01*
X1358704Y-2042162D01*
X1358704Y-3657399D01*
X1397007Y-3695702D01*
X1143007Y-3048002D02*
G01*
X1143007Y-3695702D01*
X1422483Y-1587807D02*
G01*
X1409479Y-1574802D01*
X1281158Y-1574802D01*
X855047Y-3708402D02*
G01*
X930663Y-3708402D01*
X930663Y-3708402D02*
G01*
X1086772Y-3864510D01*
X1482199Y-3864510D01*
X1651007Y-3695702D01*
X1024084Y-2743608D02*
G01*
X1192207Y-2743608D01*
X1281158Y-1828802D02*
G01*
X1281158Y-2654658D01*
X1192207Y-2743608D01*
X2624005Y-3129003D02*
G01*
X2286007Y-3467000D01*
X2286007Y-3560447D01*
X2286007Y-3560447D02*
G01*
X2286007Y-3638400D01*
X1024084Y-2285621D02*
G01*
X855987Y-2285621D01*
X516567Y-3708402D02*
G01*
X592183Y-3708402D01*
X855987Y-2285621D02*
G01*
X855987Y-3444598D01*
X592183Y-3708402D01*
X2540007Y-3706522D02*
G01*
X2169853Y-3706522D01*
X1970615Y-3905760D01*
X789541Y-3905760D01*
X592183Y-3708402D01*
X2540007Y-3638400D02*
G01*
X2540007Y-3706522D01*
D11*
X1755899Y-1828800D02*
G01*
X1879399Y-1828800D01*
X1755899Y-1701800D02*
G01*
X1879399Y-1701800D01*
X1755899Y-1574800D02*
G01*
X1879399Y-1574800D01*
X1755899Y-1447800D02*
G01*
X1879399Y-1447800D01*
X1219400Y-1828800D02*
G01*
X1342900Y-1828800D01*
X1219400Y-1701800D02*
G01*
X1342900Y-1701800D01*
X1219400Y-1574800D02*
G01*
X1342900Y-1574800D01*
X1219400Y-1447800D02*
G01*
X1342900Y-1447800D01*
D13*
G01*
X2540000Y-3638397D03*
G01*
X2540000Y-3778402D03*
G01*
X2286000Y-3638397D03*
G01*
X2286000Y-3778402D03*
G36*
X807539Y-3650899D02*
G01*
X902540Y-3650899D01*
X902540Y-3765900D01*
X807539Y-3765900D01*
G37*
G36*
X469059Y-3650899D02*
G01*
X564060Y-3650899D01*
X564060Y-3765900D01*
X469059Y-3765900D01*
G37*
G36*
X1394104Y-2216335D02*
G01*
X2044105Y-2216335D01*
X2044105Y-2816334D01*
X1394104Y-2816334D01*
G37*
G36*
X884085Y-2218108D02*
G01*
X1164084Y-2218108D01*
X1164084Y-2353109D01*
X884085Y-2353109D01*
G37*
G36*
X884085Y-2668605D02*
G01*
X1164084Y-2668605D01*
X1164084Y-2818607D01*
X884085Y-2818607D01*
G37*
D18*
G01*
X2362200Y-596900D03*
G01*
X2108200Y-596900D03*
G01*
X1854200Y-596900D03*
G01*
X1600200Y-596900D03*
G01*
X1346200Y-596900D03*
G01*
X1092200Y-596900D03*
G01*
X838200Y-596900D03*
G36*
X494200Y-506900D02*
G01*
X674199Y-506900D01*
X674199Y-686899D01*
X494200Y-686899D01*
G37*
G01*
X1143000Y-3695700D03*
G01*
X1397000Y-3695700D03*
G01*
X1651000Y-3695700D03*
D19*
G01*
X1905000Y-3695700D03*
D20*
G01*
X337997Y-2875000D03*
G01*
X337997Y-2621000D03*
G01*
X337997Y-2367000D03*
G01*
X337997Y-2113000D03*
G01*
X337997Y-1859000D03*
G01*
X337997Y-1605000D03*
G01*
X337997Y-1351000D03*
G01*
X2623997Y-2875000D03*
G01*
X2623997Y-2621000D03*
G01*
X2623997Y-2367000D03*
G01*
X2623997Y-2113000D03*
G01*
X2623997Y-1859000D03*
G01*
X2623997Y-1605000D03*
G01*
X2623997Y-1351000D03*
G01*
X337997Y-3129000D03*
G01*
X2623997Y-3129000D03*
D21*
G01*
X1143000Y-3048000D03*
G01*
X1905000Y-3048000D03*
D12*
G01*
X1422483Y-1587807D03*
M02*
